<?xml version="1.0" encoding="UTF-8"?>
<svg id="Capa_1" data-name="Capa 1" xmlns="http://www.w3.org/2000/svg" viewBox="0 0 1156.19 1014.92">
  <defs>
    <style>
      .cls-1 {
        fill: #e30613;
        stroke-width: 0px;
      }
    </style>
  </defs>
  <path class="cls-1" d="M764.57,558.23c-44.65,0-89.3,0-133.95.01-4.66,0-9.34-.04-13.98.35-3.77.32-5.92,2.87-6.12,6.6-.31,5.98-.46,11.98-.47,17.97-.05,77.97-.04,155.94-.12,233.91-.01,10.66-.17,21.33-.63,31.98-1.32,30.29-28.01,49.98-52.13,50.65-36.6,1.02-64.05-24.07-64.13-61-.17-84.64.27-169.27.48-253.91.01-4,.42-8,.32-11.99-.15-6.24-2.29-8.73-8.12-9.05-5.98-.33-11.99-.25-17.99-.25-86.64-.02-173.27-.14-259.91.06-15.19.04-28.74-3.58-41.25-12.34-20.44-14.31-27.24-39.47-21.54-64.15,5.29-22.9,26.16-39.81,50.39-41.96,6.62-.59,13.32-.34,19.98-.34,84.64-.04,169.27-.1,253.91-.04,25.94.02,24.06.97,24.02-23.48-.14-83.97.08-167.94-.08-251.91-.03-15.15,3.02-28.67,12.99-40.74,26.85-32.54,82.79-26.8,100.28,15.89,1.72,4.2,2.36,9.02,2.59,13.6.54,10.64.68,21.32.69,31.98.07,76.64.09,153.28.09,229.92,0,27.85-.49,24.59,25.13,24.63,81.3.13,162.61.07,243.91.12,8.66,0,17.34-.07,25.98.4,37.22,2.01,61.99,39.16,49.97,74.44-8.68,25.46-31.34,39.33-54.39,38.88-45.3-.89-90.63-.26-135.95-.26v.04Z"/>
</svg>