<?xml version="1.0" encoding="UTF-8"?>
<svg id="Capa_1" data-name="Capa 1" xmlns="http://www.w3.org/2000/svg" viewBox="0 0 1150.38 843.68">
  <defs>
    <style>
      .cls-1 {
        fill: #000;
        stroke-width: 0px;
      }
    </style>
  </defs>
  <path class="cls-1" d="M537.62,359.05c-44,0-87.99-.04-131.99.06-4.42.01-10.2-1.77-12.68,3.05-3.3,6.4,3.3,9.41,6.73,12.87,37.58,37.84,75.34,75.5,113.04,113.21,10.37,10.37,20.93,20.55,31.02,31.19,10.62,11.2,15.78,24.41,13.38,40.18-2.54,16.65-15.67,28.35-32.31,29.77-14.99,1.28-26.89-3-37.63-13.88-36.06-36.52-72.75-72.43-109.12-108.64-34.01-33.87-67.87-67.88-101.9-101.73-9.17-9.13-16.44-18.93-18.08-32.42-1.97-16.21,1.28-29.8,13.37-41.84,43.94-43.73,87.32-88.03,130.97-132.04,26.76-26.98,53.59-53.88,80.52-80.69,5.18-5.16,10.68-10.07,16.51-14.49,15.65-11.86,33.43-11.34,47.4.96,14.24,12.55,16.87,31.89,6.53,48.86-5.24,8.61-12.2,15.77-19.3,22.85-39.65,39.54-79.22,79.16-118.79,118.78-4.71,4.71-9.35,9.51-13.81,14.46-2.32,2.57-3.33,5.91-2.17,9.28,1.23,3.59,4.45,4.75,7.93,4.85,5.99.17,11.99.17,17.99.17,79.33.1,158.67-.64,237.98.59,44.96.69,88.82,9.27,128.77,31.43,65.9,36.55,107.23,91.71,125.73,164.92,8.68,34.37,5.71,68.79,5.58,103.32-11.85,70.17-41.86,130.14-98.35,175.28-27.97,22.35-58.83,38.69-94.06,46.42-13.6,2.99-26.87,7.59-40.52,10.23-12.51,2.42-25.11,2.85-36.15-6.11-23.76-19.29-22.25-47.75,4.54-64.38,5.6-3.48,12.1-4.99,18.94-5.71,19.99-2.08,39.15-7.81,57.65-15.53,37.02-15.46,65.01-41.43,85.06-75.74,29.77-50.96,35.91-105.33,19.88-161.9-13.32-47.03-44.99-79.33-86.7-102.41-35.36-19.57-74.24-24.75-113.97-25.02-34-.23-68-.05-101.99-.05v-.15Z"/>
</svg>