<?xml version="1.0" encoding="UTF-8"?>
<svg id="Capa_1" data-name="Capa 1" xmlns="http://www.w3.org/2000/svg" viewBox="0 0 1382.4 925.1">
  <defs>
    <style>
      .cls-1 {
        fill: #000;
        stroke-width: 0px;
      }
    </style>
  </defs>
  <path class="cls-1" d="M600.15,597.54c-72.63,0-145.25.02-217.88-.02-9.99,0-20.01.15-29.97-.52-23.04-1.54-41.67-16.86-47.52-39.23-9.91-37.96-19.31-76.05-29.2-114.02-17.78-68.24-35.73-136.42-53.67-204.62-8.46-32.15-16.98-64.28-25.6-96.39-2.29-8.54-3.44-9.5-12.43-9.57-26.65-.22-53.3-.16-79.95-.29-7.33-.04-14.66-.68-21.97-.47-22.47.63-38.39-27.81-25.38-50.45,6.38-11.1,15.92-17.72,29.05-18.41,1.99-.11,3.99-.41,5.98-.41,39.98-.07,79.95-.13,119.93-.15,13.27,0,24.75,4.54,34.29,13.84,4.82,4.7,8.54,9.8,10.25,16.7,5.4,21.92,11.42,43.69,17.18,65.53.68,2.57.98,5.27,1.84,7.77,8.26,24.05,4.87,19.83,26.99,19.79,121.26-.22,242.53-.14,363.79-.16,87.95,0,175.9-.03,263.85.05,17.32.02,34.64.47,51.96.7,6.73.09,13.23.68,18.92,4.98,10.86,8.21,14.04,19.17,8.69,33.81-12.1,33.11-24.34,66.16-36.8,99.13-26.1,69.08-52.5,138.05-76.2,208.01-2.35,6.92-4.82,13.71-5.54,21.15-.51,5.21-2.18,10.49-4.29,15.32-6.92,15.88-18.69,25.67-36.48,26.94-5.97.43-11.98.43-17.98.43-77.29.03-154.58.02-231.87.02v.53Z"/>
  <path class="cls-1" d="M423.61,804.59c-6.62-.47-13.37-.27-19.85-1.52-33.04-6.38-53.61-27.89-59.32-61.82-7.21-42.88,17.71-74.79,54.36-88.66,32.58-12.32,84.41,6.8,99.01,45.91,8.93,23.92,8.12,48.77-6.76,70.75-15.91,23.52-37.85,37.02-67.45,35.33Z"/>
  <path class="cls-1" d="M763.3,803.92c-40.03-.16-73.38-28.99-78.43-68.47-2.47-19.34,3.57-37.07,14.63-52.73,15.83-22.44,39.6-31.76,65.48-33.21,16.58-.93,32.7,6.38,46.05,16.9,24.49,19.3,35.57,44.5,29.16,75.63-6.69,32.51-27.01,52.58-58.97,61-1.92.51-3.94.78-5.92.84-3.99.13-7.99.04-11.99.04Z"/>
</svg>