<?xml version="1.0" encoding="UTF-8"?>
<svg id="Capa_1" data-name="Capa 1" xmlns="http://www.w3.org/2000/svg" viewBox="0 0 845.67 936.76">
  <defs>
    <style>
      .cls-1 {
        fill: #000;
        stroke-width: 0px;
      }
    </style>
  </defs>
  <path class="cls-1" d="M416.32,803.45c-22.56-.47-45.09.06-67.62-4.22-42.98-8.16-83.46-22.76-121.38-44.2-88.61-50.1-148.1-123.83-178.84-221.05-8.48-26.82-14.29-54.16-17.46-81.83-2.94-25.73-2.49-51.95.19-77.82,6.57-63.41,27.39-122.07,63.09-174.83C150.08,117.08,224.97,60.54,321.95,34.44c50.38-13.55,101.48-15.09,152.6-8.3,67.33,8.94,128.01,35.5,181.79,76.89,29.66,22.83,55.03,50.13,77.54,80.16,27.08,36.11,47.18,75.64,59.94,118.8,9.64,32.63,15.01,65.97,16.1,100.15,1.21,38.3-3.11,75.85-12.83,112.68-7.14,27.03-17.14,53.19-30.31,78-44.74,84.23-109.97,146.36-198.52,182.9-48.56,20.04-99.01,30.85-151.93,27.73ZM734.92,417.68c-.16-35.49-3.94-65.08-12.65-94.01-12.87-42.77-34.39-80.68-63.63-114.32-48.4-55.7-108.46-92.13-180.9-106.23-55.28-10.76-110.11-6.73-163.36,12.67-51.02,18.59-95.63,47.25-131.11,88.45-35.25,40.93-60.25,87.5-71.38,141.02-10.9,52.45-10.89,104.62,4.37,156.06,20.94,70.57,60.69,128.23,121,171.26,48.96,34.93,103.56,54.12,163.33,58.26,32.74,2.27,65.08-1.75,96.78-10.33,75.45-20.4,137.03-61.33,181.41-125.95,37.53-54.64,57.36-115.36,56.12-176.89Z"/>
  <path class="cls-1" d="M352.29,563.72c-12.39,1.11-22.34-1.91-30.88-9.18-7.61-6.47-15.6-12.58-22.57-19.69-19.11-19.52-37.86-39.41-56.56-59.32-8.33-8.87-14.73-18.51-14.69-31.72.05-15.62,6.58-27.47,19.81-34.43,13.96-7.35,28.54-5.96,41.52,3.43,5.35,3.87,9.79,9.02,14.52,13.7,13.26,13.13,26.31,26.48,39.74,39.43,6.27,6.05,9.04,5.94,15.35.11,7.34-6.78,14.37-13.9,21.45-20.96,52.85-52.72,105.72-105.42,158.46-158.25,7.61-7.63,15.98-13.92,25.37-19.19,9.13-5.12,17.51-4.54,26.52.13,14.92,7.74,23.66,19.17,23.31,36.44-.18,8.93-2.88,17.06-9.16,23.68-4.59,4.83-9.27,9.58-13.98,14.29-68.34,68.34-136.72,136.63-204.99,205.04-9.64,9.66-19.13,19.09-33.23,16.48Z"/>
</svg>