<?xml version="1.0" encoding="UTF-8"?>
<svg id="Capa_1" data-name="Capa 1" xmlns="http://www.w3.org/2000/svg" viewBox="0 0 809.43 873.09">
  <defs>
    <style>
      .cls-1 {
        fill: #000;
        stroke-width: 0px;
      }
    </style>
  </defs>
  <path class="cls-1" d="M111.74,452.35c0-69.95,0-139.89,0-209.84,0-2.66.19-5.33.09-7.98-.14-3.86-2.47-6.53-6.03-6.68-8.42-.35-15.35-3.6-21.69-8.92-12.4-10.39-14.3-24.06-10.06-38.15,4.09-13.58,14.23-22.37,28.6-24.9,5.19-.91,10.63-.48,15.95-.49,32.64-.07,65.28-.07,97.93-.16,4.65-.01,9.31-.25,13.93-.68,2.88-.27,4.81-2.1,5.33-5.03,1.51-8.52,3.1-17.02,4.38-25.58,6.67-44.72,38.17-81.48,87.38-92.79,4.47-1.03,9.27-.85,13.92-.87,45.96-.14,91.94-.91,137.89-.05,33.32.62,59.87,16.57,80.06,42.47,13.77,17.67,21.1,38.38,23.87,60.63.57,4.62.9,9.28,1.58,13.89.87,5.84,3,7.74,9.32,8.05,5.32.26,10.65.12,15.98.12,33.31,0,66.62.28,99.92-.22,10.25-.15,17.94,3.51,24.81,10.42,9.54,9.59,14.79,21,11.17,34.29-3.94,14.46-13.88,23.91-28.87,27.3-1.93.44-4.01.24-5.95.65-3.58.76-5.95,2.94-6.07,6.76-.19,5.99-.19,11.98-.19,17.98.07,127.9.15,255.81.23,383.71.01,15.33.33,30.7-2.86,45.79-12.47,58.89-48.92,96.38-105.31,114.29-15.57,4.95-32.45,6.93-49.26,6.89-95.93-.18-191.86.61-287.77-.49-46.82-.54-86.61-18.83-116.6-56.06-17.61-21.86-28.06-46.63-30.72-74.57-.75-7.94-.89-15.96-.9-23.95-.07-65.28-.04-130.57-.04-195.85h-.02ZM410.34,227.36v.12c-68.62,0-137.24.01-205.85,0-22.14,0-20.85-1.02-20.83,20.38.08,133.91.13,267.81.2,401.72,0,5.33.04,10.66.24,15.98.46,12.4,4.78,23.36,12.46,33.07,17.31,21.88,40.26,32.3,67.77,32.35,95.27.14,190.53-.11,285.8.06,11.57.02,22.59-2.3,33.29-5.76,29.22-9.44,48.42-34.82,50.25-65.27.28-4.65.33-9.32.33-13.98.03-134.57.03-269.14.04-403.71,0-2.66.26-5.35.03-7.99-.4-4.71-3.12-7.05-7.88-7-3.33.04-6.66.06-9.99.06-68.62,0-137.24,0-205.85,0ZM511.74,152.7c-.11-12.61-2.52-24.46-11.36-34.75-11.72-13.64-26.07-19.23-43.99-18.74-31.21.84-62.44.55-93.67.77-5.3.04-10.67-.19-15.89.54-15.04,2.11-25.35,10.69-31.72,24.3-3.73,7.97-3.8,16.74-5.44,25.16-.57,2.93,2.03,4.66,4.9,4.97,3.29.35,6.62.55,9.93.55,57.81-.02,115.62-.06,173.43-.17,4.57,0,9.36.81,13.82-2.62Z"/>
  <path class="cls-1" d="M526.48,480.41c0,39.32.11,78.64-.08,117.96-.04,8.63-.98,17.27-1.84,25.87-.7,7.03-4.66,12.31-10.03,16.67-12.59,10.22-26.67,12.25-41.22,5.77-13.94-6.21-21.17-17.67-21.35-33.2-.08-6.66-.18-13.33-.18-19.99.02-77.98.04-155.95.1-233.93,0-5.99-.18-12.04.54-17.97,1.82-15.12,11.28-25.74,26.24-29.06,15.23-3.38,29.28-1.19,40.09,11.31,3.54,4.1,5.4,9.23,5.84,14.66.53,6.64,1,13.3,1.02,19.95.09,40.65.05,81.31.05,121.96.28,0,.55,0,.83,0Z"/>
  <path class="cls-1" d="M364.33,481.66c0,40.65.03,81.31-.03,121.96,0,5.98.14,12.08-.87,17.93-2.94,17.11-17.41,28.72-35.46,29.08-17.42.35-32.81-11.42-36.25-28.3-1.19-5.82-1.48-11.91-1.48-17.87,0-82.64.1-165.28.31-247.91.02-6.62.34-13.42,1.89-19.81,4.07-16.73,16.76-25.38,35.82-25.39,18.43,0,31.31,9.39,34.99,26.49,1.38,6.42,1.28,13.23,1.29,19.87.11,41.32.05,82.64.05,123.96h-.28Z"/>
</svg>