<?xml version="1.0" encoding="UTF-8"?>
<svg id="Capa_1" data-name="Capa 1" xmlns="http://www.w3.org/2000/svg" viewBox="0 0 1100.56 1008.62">
  <defs>
    <style>
      .cls-1 {
        fill: #000;
        stroke-width: 0px;
      }
    </style>
  </defs>
  <path class="cls-1" d="M976.29,254.4c1.61,21.97-7.37,38.43-21.6,52.67-37.67,37.7-75.37,75.37-113.03,113.08-114.87,115-229.73,230.02-344.6,345.02-8,8.01-16.24,15.79-24.14,23.91-13.33,13.7-29.28,22.97-47.54,28.18-40.93,11.68-81.89,23.24-122.88,34.7-32.64,9.13-65.34,18.04-98.01,27.05-10.25,2.82-20.36,6.41-30.78,8.28-13.76,2.46-27.92,4.29-40.56-4.39-12.8-8.78-20.51-20.55-20.71-36.64-.12-10.08,1.05-19.83,4.19-29.49,25.25-77.87,50.32-155.8,75.47-233.71,7.9-24.48,20.83-45.49,39.31-63.88,118.98-118.42,237.47-237.34,356.17-356.05,30.14-30.14,60.66-59.92,90.67-90.2,11.99-12.1,25.54-20.87,41.87-26.01,32.73-10.3,63.04-6,90.93,13.85,7.02,4.99,13.43,10.94,19.65,16.95,37.83,36.58,75.49,73.34,113.3,109.94,8.18,7.92,15.81,16.2,21.49,26.14,7.38,12.93,13.01,26.3,10.78,40.59ZM208.99,797.49c6.82-4.19,16.23-4.76,25.16-7.36,33.78-9.83,67.7-19.22,101.54-28.84,21.71-6.17,43.38-12.5,65.1-18.62,11.15-3.14,20.35-8.82,28.44-17.41,16.44-17.45,33.71-34.12,50.67-51.08,110.24-110.23,220.5-220.45,330.74-330.68,6.12-6.12,12.27-12.23,18.25-18.49,9.43-9.86,9.5-10.04.54-18.99-41.95-41.9-83.98-83.73-125.98-125.57-1.88-1.88-3.73-3.83-5.81-5.47-4.15-3.26-8.94-3.53-12.76-.05-6.4,5.82-12.43,12.06-18.55,18.18-121.52,121.57-242.97,243.2-364.58,364.68-31.63,31.59-31.78,31.39-45.27,73.28-11.41,35.46-23.01,70.86-34.54,106.29-5.76,17.71-11.56,35.41-17.3,53.13-.87,2.7-.68,5.17,4.33,6.99Z"/>
</svg>