<?xml version="1.0" encoding="UTF-8"?>
<svg id="Capa_1" data-name="Capa 1" xmlns="http://www.w3.org/2000/svg" viewBox="0 0 1191.41 1182.32">
  <defs>
    <style>
      .cls-1 {
        fill: #000;
      }

      .cls-1, .cls-2 {
        stroke-width: 0px;
      }

      .cls-2 {
        fill: #e30613;
      }
    </style>
  </defs>
  <path class="cls-1" d="M542,54.3c154.66,0,309.33,0,463.99.04,5.93,0,12.32-1.42,17.6,2.04,8.04,5.26,14.04,11.73,13.59,22.7-.52,12.64.38,25.32.37,37.99-.07,115.33-.2,230.66-.33,346,0,5.33.08,10.68-.21,16-1.21,21.64-20.1,36.18-41.44,32.38-11.67-2.08-19.47-8.6-23.09-19.57-1.85-5.6-2.66-11.7-2.95-17.63-.51-10.64-.34-21.33-.35-31.99-.03-98.67-.04-197.33-.06-296,0-4.67.14-9.34-.04-14-.29-7.4-1.83-8.96-9.9-9-15.33-.08-30.66.21-46,.21-261.33.02-522.66.03-783.99,0-22.14,0-20.37-1.51-20.36,20.46.05,226.66.08,453.33.04,679.99,0,22.65-1.07,22.02,21.47,22.01,143.33-.06,286.66.02,429.99.06,4,0,8-.02,12,.17,13.68.66,22.02,7.51,25.44,20.79,5.6,21.69-8.72,42.33-31.01,44.44-5.29.5-10.66.3-15.99.3-156,.02-311.99.02-467.99.02-4.67,0-9.35.22-14-.14-16.07-1.25-26.69-12.26-27.62-28.55-.27-4.65-.11-9.33-.11-14,0-252.66.01-505.33.03-757.99,0-8.67.4-17.34.12-26-.63-19.97,12.46-32.31,30.78-30.66,6.61.6,13.32.06,19.99.06,150,0,300,0,449.99,0v-.12Z"/>
  <path class="cls-2" d="M768.82,551.81c82.61,0,165.21,0,247.82,0,5.33,0,10.73-.42,15.97.26,27.23,3.52,40.02,28.11,39.56,47.65-.23,10.1-5.95,19.01-11.92,27.06-13.09,17.64-26.71,34.88-39.87,52.46-21.14,28.24-42.03,56.66-63.12,84.94-26.25,35.2-52.61,70.32-78.91,105.48-13.55,18.11-27.15,36.18-40.61,54.35-5.7,7.69-8.26,16.11-8.1,26.05.56,34.63.37,69.28.27,103.92-.02,7.97-.28,16.03-1.43,23.9-2.43,16.69-16.71,30.97-33.42,31.93-17.26.99-34.69,1.08-51.92-.19-22.29-1.64-34.89-14.7-37.68-36.98-.82-6.58-.73-13.3-.74-19.95-.08-33.31-.2-66.62.02-99.93.06-9.66-2.38-17.42-8.48-25.55-45.53-60.68-90.34-121.9-135.42-182.92-28.47-38.53-56.88-77.11-85.64-115.41-7-9.32-9.52-19.02-6.04-29.94,2.03-6.37,3.43-12.7,4.31-19.35,2.04-15.33,14.29-26.45,29.53-27.57,5.3-.39,10.65-.14,15.98-.14,83.27,0,166.55,0,249.82,0v-.09ZM764.72,623.7v.03c-56.61,0-113.21,0-169.82,0-7.33,0-14.65-.17-21.98-.1-6.99.07-8.68,2.74-4.99,8.2,6.69,9.91,13.74,19.54,21.03,29.05,6.5,8.48,13.34,12.21,23.51,10.87,1.31-.17,2.66-.03,3.99-.03,99.89,0,199.79-.22,299.68.26,13.41.06,23.06-2.97,29.27-15.46,2.92-5.87,7.62-10.86,11.45-16.29,2.3-3.26,4.58-6.54,6.66-9.94,1.29-2.11-.62-5.91-3.06-6.05-5.3-.31-10.62-.51-15.93-.51-59.94-.03-119.87-.02-179.81-.02Z"/>
  <path class="cls-1" d="M285.61,450.61c-21.3,0-42.6-.02-63.91,0-10.16.01-17.32-4.83-23.59-12.64-16.58-20.66,1.24-52.6,23-53.12,3.33-.08,6.65-.42,9.97-.44,37.95-.23,75.93.49,113.83-.92,28.66-1.07,41.34,29.15,32.58,48.51-4.87,10.76-12.37,17.1-24,18.17-7.28.66-14.63.79-21.94.84-15.31.12-30.63.04-45.94.04,0-.15,0-.3,0-.45Z"/>
  <path class="cls-1" d="M542.68,237.77c20.6,0,41.2-.08,61.8.04,7.37.04,13.97,1.7,20.35,6.45,15.04,11.2,15.59,47.63-8.72,56.81-7.6,2.87-15.37,4.23-23.39,4.26-33.89.13-67.78.28-101.67.13-5.92-.03-11.92-1.02-17.73-2.28-13.18-2.86-20.7-12.18-23.42-24.51-2.86-12.96.08-25.15,10.47-34.55,3.55-3.21,7.77-5.13,12.56-5.46,5.3-.36,10.61-.67,15.92-.69,17.94-.08,35.88-.03,53.82-.03v-.17Z"/>
  <path class="cls-1" d="M793.81,447.02c-19.33,0-38.66-.06-57.99.02-12.29.05-21.94-4.46-28.38-15.3-11.79-19.85.24-47.3,22.84-51.59,3.88-.74,7.96-.54,11.95-.53,34.66.15,69.31.32,103.96.61,5.97.05,12.05.11,17.87,1.22,15.76,3.02,25.24,14.82,25.68,31.05.41,15.26-9.48,29.15-24.09,32.84-5.09,1.29-10.55,1.43-15.85,1.48-18.66.17-37.33.06-55.99.06v.12Z"/>
  <path class="cls-1" d="M280.98,598.59c-18.64,0-37.28-.18-55.92.08-9.12.12-16.9-2.28-23.58-8.71-10.87-10.47-13.81-31.18-5.8-44.03,4.43-7.11,10.28-12.15,19.23-12.39,3.99-.11,7.97-.67,11.95-.71,37.94-.39,75.88-.76,113.83-1.03,8.7-.06,17.05.99,24.69,6.15,18.1,12.23,14.05,46.2-3.59,54.61-7.95,3.79-15.96,6.31-24.9,5.99-9.31-.32-18.64-.09-27.96-.09-9.32,0-18.64,0-27.96,0v.13Z"/>
  <path class="cls-1" d="M289.21,239.66c20,0,40-.22,59.99.07,17.16.24,31.66,14.1,33.04,30.91,1.32,16.15-12.23,32.52-29.17,35.1-2.62.4-5.32.38-7.98.37-37.33-.03-74.65-.14-111.98-.11-8.25,0-15.73-1.55-22.35-6.95-10.07-8.21-14.87-18.26-13.58-31.48,1.7-17.37,10.31-26.8,28.05-27.66,17.3-.83,34.65-.44,51.98-.57,4-.03,8,0,12,0v.32Z"/>
  <path class="cls-1" d="M283.58,739.18c-15.93,0-31.86,0-47.79,0-3.98,0-7.97.07-11.95-.13-20.82-1.07-32.02-11.5-32.31-29.98-.3-19.52,12.88-34.9,31.73-36.92,2.63-.28,5.3-.21,7.96-.21,35.18-.06,70.36.13,105.54-.31,11.32-.14,20.71,3.17,29.04,10.58,11.95,10.62,13.62,22.68,9.17,38.16-2.9,10.1-10.92,16.56-21.75,18.11-5.22.75-10.59.66-15.89.68-17.92.07-35.84.03-53.76.03Z"/>
  <path class="cls-1" d="M541.86,447.43c-15.97,0-31.93.03-47.9-.02-5.32-.02-10.67.07-15.95-.47-14.92-1.51-24.43-9.86-28.11-24.23-3.38-13.2,2.76-30.38,13.75-37.04,3.29-2,7.34-3.1,11.19-3.73,4.56-.75,9.27-.72,13.92-.72,34.59-.03,69.19-.03,103.78.08,5.97.02,12.02.08,17.9.97,13.38,2.03,22.39,11.8,24.08,25.39.25,1.98.39,3.98.41,5.97.28,20.87-10.17,32.46-31.21,33.09-20.6.61-41.24.13-61.86.13v.59Z"/>
  <path class="cls-1" d="M792.79,234.12c19.26,0,38.52.43,57.76-.15,13.41-.41,23.52,4.73,29.63,16.13,6.5,12.12,4.44,24.63-2.36,36.11-4.67,7.88-12.55,11.6-21.37,13.08-3.24.54-6.62.38-9.94.38-36.52.04-73.04-.3-109.56.25-11.66.18-20.3-3.71-27.94-12.16-8.57-9.47-10.58-20.45-5.94-31.41,5.01-11.83,13.12-21.89,27.96-22,20.58-.16,41.17-.04,61.75-.04v-.21Z"/>
</svg>