<?xml version="1.0" encoding="UTF-8"?>
<svg id="Capa_2" data-name="Capa 2" xmlns="http://www.w3.org/2000/svg" viewBox="0 0 977.2 1122.26">
  <defs>
    <style>
      .cls-1 {
        fill: #000;
      }

      .cls-1, .cls-2 {
        stroke-width: 0px;
      }

      .cls-2 {
        fill: #e30613;
      }
    </style>
  </defs>
  <g id="Capa_1-2" data-name="Capa 1">
    <g>
      <path class="cls-1" d="M.13,554.81c0-138.66.06-277.32-.06-415.98-.02-20.88,2.96-40.92,10.99-60.43C25.73,42.75,51.75,19.99,87.62,7.4,103.58,1.8,120.04.07,136.75.06,307.41,0,478.06-.03,648.72.05c14.66,0,29.34.44,43.97,1.32,41.13,2.46,73.63,20.21,97.26,54.47,15.63,22.67,24.04,47.52,24.5,74.77.67,40.65.41,81.32.54,121.99,0,1.33-.06,2.67-.18,3.99-.41,4.81-3.15,6.97-7.86,6.98-11.33.02-22.66.03-33.98.12-6,.05-11.99.24-17.98.37-9.95.22-11.12-.86-11.51-11.3-.17-4.66-.02-9.33-.02-14,.02-36.67.17-73.33.01-110-.15-35.68-22.57-58.46-58.73-58.94-41.99-.56-83.99-.43-125.99-.45-11.63,0-11.64.24-14.02,11.44-3.33,15.71-10.76,28.36-25.48,36.23-6.79,3.63-13.75,4.42-21.18,4.39-33.33-.1-66.66-.04-100-.04-29.33,0-58.67.08-88-.06-26.36-.13-41.4-13.01-46.62-39.56-.26-1.31-.31-2.66-.59-3.95-1.48-6.68-2.63-7.97-9.24-8.18-9.99-.31-19.99-.25-29.99-.24-30,.03-60,.5-89.99.05-20.97-.31-37.32,7.82-50.47,23.7-7.04,8.49-11.5,17.87-11.96,28.97-.17,4-.28,8-.28,12-.04,281.99-.05,563.98-.13,845.97,0,11.43.8,22.46,5.89,33.08,7.62,15.87,19.2,26.92,35.93,32.49,10.13,3.37,20.33,5.27,31.21,5.26,173.33-.22,346.65-.14,519.98-.14,5.33,0,10.67-.24,16-.02,14.58.61,27.4-4.16,39.41-12.06,14.99-9.86,23.98-23.67,23.94-41.45-.08-34.6,2.62-69.27-2.55-103.81-2.16-14.45-2.24-29.22-3.19-43.85-.17-2.65-.13-5.33.04-7.98.13-2.01.92-3.76,3.25-4.19,2.57-.48,3.89,1.4,4.1,3.19,1.39,11.89,3.15,23.79,3.51,35.72.34,11.45,2.41,22.28,5.87,33.17,5.05,15.88,14.08,28.65,27.27,38.42,8.01,5.93,16.41,11.46,25.12,16.29,6.06,3.36,8.7,7.8,8.59,14.4-.4,24.97-4.85,49.08-16.41,71.39-15.35,29.63-39.03,50.34-69.95,62.56-13.65,5.39-28.02,8.37-42.73,9.2-6.65.37-13.33.32-19.99.32-171.99.04-343.99-.03-515.98.21-26.56.04-51.9-4.75-75.05-17.56-45.42-25.14-69.94-64.3-74.25-115.93-1-11.93-.74-23.98-.75-35.98C-.01,820.13,0,687.47,0,554.81h.13Z"/>
      <path class="cls-2" d="M715.28,314.14c54,0,108,.29,161.99-.13,24.4-.19,45.59,7.83,65.31,21.37,6.9,4.74,11.87,10.77,14.26,18.65,2.7,8.91,5.88,17.89,6.94,27.06,2.84,24.49,7.72,48.64,11.22,73,2.85,19.81,2.77,40.01.67,59.87-1.33,12.53-7.18,24.28-15.58,34.07-8.24,9.6-16.77,18.95-28.67,24.44-4.81,2.22-9,5.78-13.8,8.05-7.85,3.71-10.12,8.99-8.37,17.68,6.06,30,11.5,60.13,17,90.24,2.39,13.07,4.32,26.23,6.55,39.33,5.91,34.77,11.99,69.52,17.74,104.31,2.6,15.75,4.86,31.57,6.66,47.43.74,6.55.55,13.37-.36,19.91-2.77,19.9-14.99,30.58-35.04,30.84-16,.2-32.08.91-47.98-.42-22.72-1.89-44.73-6.72-62.22-23.38-8.64-8.23-13.31-17.83-14.2-29.8-1.59-21.25-4.05-42.42-5.71-63.67-.75-9.63-4.94-16.05-13.78-20.09-17.55-8.02-35.36-15.44-52.04-25.37-10.5-6.25-19.41-13.99-27.64-22.75-6.48-6.9-10.82-15.11-14.24-23.88-4-10.27-4.89-20.51-1.8-31.29,4.02-14.07,7.47-28.31,11.04-42.51.81-3.21,1.47-6.54,1.52-9.82.06-3.67-2.01-6.4-5.85-6.82-7.34-.81-14.6.11-21.85,1.43-17.67,3.21-35.28,6.87-53.08,9.15-19.2,2.45-38.96,3.75-57.82.34-24.71-4.47-46.3-17.13-62.62-36.68-19.01-22.76-33.4-48.05-38.54-77.9-1.37-7.93-2.36-15.82-2.31-23.82.12-21.32.17-42.63,2.19-63.92,1.38-14.57,1.62-29.29,1.58-43.95-.05-17.07,6.6-31.03,18.13-43.01,11.19-11.62,24.22-20.95,38.38-28.49,11.84-6.31,24.54-9.57,38.34-9.48,54.66.36,109.33.15,163.99.15,0-.04,0-.07,0-.11ZM577.56,475.05c.59-15.3-3.57-36.12-8.18-56.89-3.12-14.1-9.19-26.31-21.78-34.36-15.94-10.18-31.26-6.53-40.27,10-6.4,11.75-10.81,24.24-10.91,37.87-.11,14.62.27,29.25-.26,43.85-.71,19.39,1.78,38.41,5.37,57.36,3.7,19.54,12.81,36.12,27.01,49.99,8.54,8.35,18.83,8.89,29.7,6.83,2.73-.52,4.96-2.23,5.97-4.79,1.95-4.92,3.87-9.89,5.25-14.99,7.9-29.09,11.02-58.65,8.11-94.87ZM779.83,729.19c-.56-3.51-1.33-8.76-2.24-13.98-1.93-11.16-4.44-22.22-4.11-33.67.42-14.72-1.96-29.1-4.39-43.6-1.81-10.79-7.47-16.44-16.79-20.13-12.77-5.05-22.96,2.18-21.84,16.05,3.1,38.51,19.35,71.56,42.89,101.45.54.68,2.49.85,3.44.45,1.02-.43,1.73-1.77,2.4-2.82.33-.52.25-1.29.64-3.76Z"/>
      <path class="cls-1" d="M120.17,621.46c0-73.32.02-146.64,0-219.96,0-24.64-.31-22.04,23.53-21.7,6.44.09,8.58,2.05,9.03,8.15.74,9.96,1.28,19.96,1.3,29.94.11,64.65.06,129.31.06,193.96,0,6,.12,12,0,18-.52,28.51,2.47,21.8,23,20.25,6.34-.48,7.85-2.43,8.22-8.98.3-5.32.19-10.66.19-15.99,0-75.32.05-150.64-.07-225.96-.04-23.27.51-19.59,21.23-19.62,1.33,0,2.66.05,3.98.17,3.87.36,6.12,2.67,6.32,6.39.32,5.98.27,11.99.26,17.99-.13,73.99-.19,147.97-.48,221.96-.07,16.8.04,18.53,17.96,15.71,3.28-.51,6.52-1.34,9.74-2.19,4.31-1.14,6.89-3.97,7.09-8.48.27-5.99.37-11.98.37-17.98.03-69.32.02-138.64.02-207.96,0-3.33-.04-6.67.03-10,.33-16.15.53-16.31,17.41-15.4,10.33.56,11.34,1.27,11.43,11.75.25,29.33.28,58.65.25,87.98-.04,43.99-.21,87.98-.27,131.97,0,5.32.1,10.65.48,15.96.28,3.87,2.88,5.76,6.64,5.98,1.32.08,2.66-.13,3.98-.29,27.58-3.23,25.61,2.41,25.6-27.4-.02-68.65.01-137.31.04-205.96,0-4.66.01-9.33.24-13.98.19-3.85,2.62-6.45,6.26-6.4,20.86.33,22.3-1.26,22.29,19.94-.02,65.32-.03,130.64,0,195.96,0,7.33.01,14.68.52,21.98.5,7.21,4.29,10.13,10.59,7.6,6.28-2.51,12.64-3.91,19.24-4.89,4.45-.65,6.95-3.67,7.1-8.26.18-5.33.29-10.66.29-15.99.02-64.65.02-129.31.04-193.96,0-5.33-.1-10.68.33-15.98.29-3.64,2.64-6.05,6.49-6.22,3.99-.18,8-.22,11.98-.05,7.33.33,8.94,2,9.3,9.88.24,5.32.11,10.66.12,15.99.03,63.32.03,126.64.08,189.96.02,22.36-1.35,24.87,23.02,19.65,8.07-1.73,11.92,1.23,15.61,8.09,3.42,6.34,8.89,11.58,13.48,17.29q12.24,15.25,12.43,34.04c.07,10,.01,20-.04,29.99-.23,45.32-.48,90.65-.72,135.97-.01,2-.03,4,0,6,.2,17.19-2.88,19.32-20.08,18.45-5.78-.29-8.57-2.89-9.07-8.39-.24-2.64-.05-5.32-.05-7.98-.19-59.99-.38-119.97-.6-179.96,0-2.65.07-5.37-.44-7.94-.71-3.53-3.02-5.69-6.76-6.23-23.06-3.34-26.71-.21-26.75,22.94-.09,55.99-.11,111.98-.31,167.97-.07,19.29-3.18,21.84-22.05,19.37-4.04-.53-5.74-3.27-5.94-6.77-.31-5.31-.07-10.66-.08-15.99-.04-53.99-.09-107.98-.13-161.97,0-2.67.07-5.34-.07-8-.51-9.91-2.83-11.69-12.37-9.53-1.29.29-2.59.69-3.8,1.24-6.1,2.8-14.47-.46-18.92,4.74-5.52,6.46-2.66,15.39-2.68,23.21-.16,49.99.01,99.98.07,149.97,0,4.67.17,9.34-.09,13.99-.48,8.67-5.24,13.07-13.98,13.25-8.57.18-13.72-4.36-14.33-13.02-.33-4.65-.18-9.33-.18-13.99-.01-46.66,0-93.32-.02-139.97,0-6,.08-12-.14-17.99-.47-12.79-1.48-13.59-14.05-12.07-2.64.32-5.28.91-7.93,1-14.38.46-14.93,3.03-14.94,17.27-.04,50.66-.15,101.31-.28,151.97-.01,5.32-.09,10.68-.64,15.96-.52,4.93-3.29,8.73-7.96,10.63-5.09,2.07-9.07-.71-12.61-3.84-3.57-3.15-6.14-7.05-6.33-12.05-.23-5.99-.5-11.99-.5-17.98-.06-45.32-.05-90.65-.08-135.97,0-4.66.22-9.37-.37-13.96-.48-3.71-3.3-5.85-7.15-5.02-7.16,1.54-14.28,3.3-21.31,5.34-2.64.77-4.25,3.14-4.3,6.09-.09,5.33-.09,10.66-.08,15.99.08,44.66.17,89.31.24,133.97.01,7.34.05,14.68-3.22,21.55-2.77,5.81-7.4,7.99-14.96,6.87-6.47-.96-10.43-3.91-11.11-9.61-.78-6.59-.94-13.29-.94-19.94-.02-41.99.08-83.98.14-125.98,0-5.33.19-10.67-.04-15.99-.28-6.66-2.14-8.58-8.4-8.11-27.8,2.08-26.37-.54-26.47,27.08-.14,37.33-.08,74.65-.19,111.98-.02,7.98.15,15.98-2.59,23.72-4.11,11.63-8.81,14.64-20.94,12.88-6.77-.98-9.56-3.56-10.02-10.18-.41-5.97-.36-11.99-.36-17.98-.02-71.99-.01-143.97-.01-215.96h.18ZM202.41,848.12c.45.21.9.41,1.35.62v-153.54c-.45,0-.9,0-1.35,0v152.93ZM462.93,842.51v-106.47c-1.3,34.14-1.86,68.29-2.32,102.44-.01.94,1.05,1.89,2.32,4.03ZM202.64,628.34c.19,0,.39,0,.58,0v-76.49c-.19,0-.39,0-.58,0v76.48ZM202.79,459.65c.12,0,.24,0,.36-.01v-51.59c-.12,0-.24.01-.36.02v51.58ZM137.55,827.97c.31-.07.63-.15.94-.22v-39.38c-.31,0-.63.02-.94.02v39.57ZM461.68,706.82s.2.44.39.86c.3-1.21.85-2.41.86-3.62.08-6.99.04-13.99.04-20.98h-1.3v23.74ZM138.17,428.42c.79-8.12,1.83-12.38,0-16.33v16.33Z"/>
      <path class="cls-1" d="M608.09,775.82c0,20.62.04,41.23-.03,61.85-.02,4.64.13,9.41-.84,13.9-1.99,9.27-10.15,14.45-19.43,13.05-5.62-.85-9.91-4.51-10.92-10.09-.7-3.89-.86-7.93-.87-11.9-.09-43.23-.11-86.46-.11-129.68,0-3.99.12-7.99.52-11.95.36-3.51,1.92-6.14,6.01-6.57q25.99-2.73,25.91,23.54c-.04,19.29,0,38.57,0,57.86h-.23Z"/>
      <path class="cls-1" d="M542.21,774.09c0,22.67.02,45.33-.02,68,0,2.66-.31,5.32-.46,7.98-.78,13.32-3.22,15.7-17.61,14.79-5.38-.34-8.68-3.42-9.94-8.32-.99-3.83-1.46-7.89-1.54-11.85-.97-50.65-1.85-101.3-2.67-151.96-.05-3.27.3-6.64,1.06-9.81.46-1.91,2.63-3.52,4.58-2.33,6.86,4.17,14.12,7.23,21.81,9.47,2.77.81,4.17,3.27,4.36,6.07.31,4.65.49,9.31.5,13.96.05,21.33.02,42.66.02,64-.03,0-.06,0-.09,0ZM526.79,700.57c-2.29,19.98-1.82,126.91.62,140.7,1.42-21.55.96-126.9-.62-140.7Z"/>
    </g>
  </g>
</svg>