<?xml version="1.0" encoding="UTF-8"?>
<svg id="Capa_1" data-name="Capa 1" xmlns="http://www.w3.org/2000/svg" viewBox="0 0 1145.94 1121.52">
  <defs>
    <style>
      .cls-1 {
        fill: #000;
        stroke-width: 0px;
      }
    </style>
  </defs>
  <path class="cls-1" d="M442.47,1059.03c-84.64,0-169.27,0-253.91,0-8,0-16,.1-23.99-.25-20.74-.91-32.61-13.11-33.5-34.23-.2-4.66-.12-9.33-.12-13.99,0-149.28-.01-298.56-.02-447.83,0-4,.41-8.04-.05-11.99-2.93-24.86,20.66-46.82,44.9-49.83,3.29-.41,6.66-.11,9.98-.29,10.47-.55,10.79-.69,10.8-12,.11-78.64.12-157.27.17-235.91,0-6.66-.13-13.34.15-19.99.92-21.62,9.61-37.48,30.26-47.45,49.79-24.04,100.05-47.03,150.51-69.59,16.4-7.33,33.5-13.06,50.11-19.92,21.39-8.84,43.93-10.39,66.59-10.79,26.65-.47,53.31-.44,79.97-.51,31.32-.08,62.64-.08,93.97-.04,5.32,0,10.73-.19,15.94.66,9.7,1.58,17.04,6.34,21.35,15.93,4.18,9.3,6.34,18.57,6.31,28.84-.23,75.3-.13,150.61-.07,225.92.02,27.62-2.37,24.86,24.32,24.86,68.64.02,137.28.02,205.92.05,5.33,0,10.71-.27,15.98.35,13.04,1.53,22.34,9.88,24.1,22.85,1.42,10.52,1.62,21.25,1.66,31.9.19,53.98.16,107.96.17,161.94.02,79.3.01,158.61.01,237.91,0,5.33-.37,10.69.03,15.99,1.63,21.76-6.6,37.44-24.36,51.13-55.41,42.74-111.23,84.81-169.89,123-11.16,7.27-22.63,14.06-33.97,21.04-14.55,8.95-30.02,12.7-47.43,12.58-88.63-.59-177.27-.27-265.9-.27v-.07ZM446.29,996.16v-.02c79.95,0,159.9.03,239.85-.02,19.88-.01,19.99-.23,20.54-19.92.06-2,.05-4,.05-6,.02-129.26.03-258.51.02-387.77,0-4.66-.04-9.34-.5-13.97-.58-5.97-2.7-7.72-9.23-8.1-3.32-.19-6.66-.07-9.99-.07-44.64.09-89.28.25-133.92.27-21.3,0-20.8-1.2-20.75,20.6.05,18.65.16,37.32-.3,55.96-.32,12.81-8.02,22.87-18.68,25.21-3.85.84-7.95.74-11.93.74-34.65.04-69.29.01-103.94-.03-3.33,0-6.7.08-9.97-.41-12.72-1.88-21.69-10.34-23.71-23.32-1.43-9.18-2.27-18.54-2.31-27.82-.06-13.97.85-27.94,1.27-41.92.18-5.99-2.19-8.62-7.98-9.07-1.99-.16-4-.09-5.99-.08-47.3.05-94.61.04-141.91.2-15.26.05-15.23.25-15.23,15.69.04,133.25.06,266.5.09,399.76,0,4.66-.04,9.32.21,13.97.21,3.89,2.73,5.84,6.45,6.1,2.65.19,5.32.02,7.98.02,79.95,0,159.9,0,239.85,0ZM767.32,738.69h.35c0,69.26,0,138.52,0,207.78,0,3.99-.03,7.99.2,11.97.06,1.13.72,2.53,1.58,3.25,1.83,1.54,3.84.53,5.4-.62,46.58-34.39,93.08-68.9,139.76-103.17,5.33-3.91,8.35-8.26,8.15-14.88-.12-3.99.1-7.99.1-11.99-.03-121.87-.07-243.74-.13-365.61,0-4.66,0-9.33-.35-13.97-.35-4.67-3.18-7.01-7.86-7.08-1.33-.02-2.66-.11-3.99-.1-55.94.32-111.88.58-167.81,1.07-8.62.08-17.33.82-25.49,4.15-34.51,14.05-69.01,28.11-103.47,42.29-2.38.98-4.53,2.72-6.47,4.46-.47.42-.09,2.89.6,3.34,3.56,2.33,7.7,1.49,11.65,1.48,39.96-.16,79.91-.36,119.87-.52,5.33-.02,10.65.09,15.98.22,5.5.14,8.29,3.62,9.85,8.38,2.55,7.75,2.04,15.82,2.05,23.78.09,68.59.05,137.19.05,205.78ZM505,339.09h.15c0,36.61-.01,73.22.01,109.82,0,5.32.03,10.65.37,15.96.22,3.55,3.63,5.27,7.3,4,1.26-.43,2.49-.94,3.71-1.46,36.71-15.64,73.42-31.28,110.11-46.95,4.89-2.09,9.74-4.29,14.54-6.58,4.62-2.21,7-5.87,6.81-11.12-.1-2.66.02-5.32.03-7.99.08-76.54.16-153.09.21-229.63,0-3.98-.21-7.97-.61-11.93-.29-2.94-2.23-4.8-5.14-5.19-3.28-.44-6.61-.76-9.92-.76-48.59-.06-97.18-.06-145.76-.06-7.35,0-14.4,1.53-21.59,3.15-15.04,3.39-29.33,8.65-43.39,14.67-25.67,11-51.26,22.2-76.85,33.36-1.78.78-3.6,1.74-4.98,3.06-.67.64-.49,2.31-.44,3.5.02.47.68,1.27,1.12,1.31,3.28.36,6.58.84,9.87.8,43.92-.61,87.84-1.31,131.77-1.98,5.32-.08,10.64-.17,15.96-.11,4.06.05,5.93,2.69,6.19,6.34.37,5.31.52,10.64.53,15.96.04,37.27.02,74.55.02,111.82ZM259.46,380.65h.32c0,32.63-.03,65.26.03,97.89,0,5.32.24,10.64.6,15.94.19,2.9,1.88,5.01,4.87,5.4,3.28.44,6.61.69,9.92.69,50.61-.01,101.22-.02,151.83-.18,15.18-.05,15.59-.64,15.94-15.58.02-.67,0-1.33,0-2,.05-66.59.09-133.18.13-199.78,0-2.66.03-5.33-.12-7.99-.43-7.46-2.17-9.35-9.59-9.47-17.98-.29-35.95-.43-53.93-.5-7.27-.03-9.34,2.45-6.77,10.15,3.98,11.93,3.18,23.49.05,35.34-2.07,7.82-6.92,12.81-14.14,15.58-22.33,8.57-39.48.19-46.31-22.5-.96-3.18-1.35-6.58-2.61-9.63-3.04-7.36-6.37-14.6-9.73-21.83-1.81-3.9-5.09-6.44-9.32-6.57-8.64-.27-17.3-.11-25.95.11-2.97.08-4.84,2.24-5.13,5.07-.34,3.28-.09,6.63-.09,9.95,0,33.3,0,66.59,0,99.89ZM446.66,608.46c5.93,0,11.87.18,17.8-.06,4.48-.18,7.52-2.56,7.48-7.33-.12-12.45,2.02-24.99-1.21-37.34-11.77-6.54-24.5-1.67-36.7-3.04-1.27-.14-2.61.2-3.91.41-2.92.47-4.97,2.28-5.16,5.09-.43,6.56-.54,13.15-.54,19.72,0,23.23-1.88,23.19,22.25,22.55Z"/>
  <path class="cls-1" d="M364.76,889.59c-17.96,0-35.93.11-53.89-.06-5.96-.06-12.03-.24-17.84-1.4-12.76-2.54-23.24-14.33-23.93-26.05-.8-13.55,7.6-26.74,19.83-31.53,5.68-2.22,11.5-3.07,17.56-3.07,40.59.02,81.17,0,121.76-.09,7.47-.02,14.48,1.01,20.75,5.62,12.85,9.44,12.46,22.74,10.28,36.16-1.77,10.88-11.15,17.99-24.68,19.68-5.26.66-10.62.52-15.94.54-17.96.06-35.93.02-53.89.02v.17Z"/>
  <path class="cls-1" d="M334.65,975.11c-9.29,0-18.59.2-27.87-.05-9.94-.27-17.87-4.88-23.73-12.72-10.24-13.69-6.26-30.66,8.84-38.78,5.37-2.89,11.17-4.33,17.17-4.72,19.24-1.25,38.48-1.42,57.7.42,2.64.25,5.32.59,7.85,1.33,10.44,3.06,19.44,13,19.68,22.63.38,14.96-3.18,22.95-16.3,28.91-4.98,2.26-10.12,3.07-15.46,3.28-2.65.11-5.31.32-7.96.34-6.64.05-13.28.02-19.92.02,0-.22,0-.44,0-.66Z"/>
  <path class="cls-1" d="M840.76,468.46c-.74,3,.09,6.7-4.07,8.07-13.1,4.32-25.68,10.43-39.74,11.45l.49.44c4.1-6.08,11.13-5.96,17.08-8.22,8.95-3.41,19.11-4.17,26.23-11.68,0,.01,0-.05,0-.05Z"/>
  <path class="cls-1" d="M868.95,463.88c6.35-3.92,12.64-8.06,22.4-6.86-8.11,5.08-14.94,7.81-22.88,6.35l.48.51Z"/>
  <path class="cls-1" d="M868.48,463.37c-8.23,7.14-17.11,10.76-27.71,5.11-.01-.02,0,.05,0,.04,5.23,1.26,10.14-.23,15.12-1.62,4.29-1.2,8.69-2.03,13.06-3.01.01,0-.46-.51-.46-.51Z"/>
  <polygon class="cls-1" points="905.61 453.65 907.18 453.45 906.93 454.37 905.61 453.65"/>
  <path class="cls-1" d="M796.96,487.97c-2.87,3.41-7.2,3.61-10.99,5.02l.42.25c1.51-6.49,6.63-4.85,11.03-4.86.03.02-.46-.42-.46-.42Z"/>
  <path class="cls-1" d="M785.97,492.99c-4.62.83-9.24,1.65-13.87,2.48l.48.52c3.83-4.39,8.68-3.93,13.73-2.8.07.05-.34-.2-.34-.2Z"/>
  <path class="cls-1" d="M772.1,495.47c.34,2.36-.74,3.38-3.02,3.02-.46-.07-1.22-1.1-1.14-1.24,1.12-1.79,2.73-2.13,4.63-1.27,0,0-.48-.52-.48-.52Z"/>
  <path class="cls-1" d="M631.63,162.04c1.01-1.54,1.67-3.75,3.09-4.46,2.26-1.12,3.78,1.04,3.81,2.93.19,9.73.09,19.46-1.21,29.23-.28-7.56-.44-15.14-.92-22.69-.17-2.67-1.55-4.89-4.87-5.13-.12-.07.09.11.09.11Z"/>
  <path class="cls-1" d="M598.59,173.52c.07-3.84,3.06-4.88,5.75-6.59,3.02-1.92,7.5-2.04,8.7-6.43l-.03-.19c-.74,3.72-1.08,7.48-5.81,8.84-3.13.89-6,2.71-8.98,4.12,0,0,.37.26.37.26Z"/>
  <path class="cls-1" d="M520.83,192.45c-.55,2.19-.92,4.46-1.8,6.51-.2.45-2.22.12-3.4.15.16-.59.12-1.4.51-1.72,1.74-1.48,5.37-1.1,4.71-4.9,0,0-.01-.04-.01-.04Z"/>
  <path class="cls-1" d="M537.62,192.6c.03-4.77,6.69-3.6,7.16-7.97v-.07c-.08,5.01-2.29,7.9-7.63,7.67l.47.38Z"/>
  <path class="cls-1" d="M613.04,160.5c6.09,1.07,12.44-1.3,18.5,1.48.09.06-.11-.12,0-.05-6.1-.11-12.66,3.63-18.49-1.56-.04-.06-.01.13-.01.13Z"/>
  <path class="cls-1" d="M598.22,173.26c-4.47.87-8.93,1.74-13.4,2.61l.47.46c3.26-5.96,8.28-4.07,13.21-2.87.08.06-.29-.19-.29-.19Z"/>
  <path class="cls-1" d="M584.82,175.88c-2.83,3.87-7.27,3.79-11.39,4.6-.05-.05.42.3.42.3,2.17-5.63,6.92-4.7,11.42-4.46.02.02-.45-.44-.45-.44Z"/>
  <path class="cls-1" d="M562.34,185.22c2.07-5.91,6.82-5.02,11.47-4.48.05.03-.43-.31-.38-.27-3.74,1.57-7.54,3.09-11.42,4.55-.09-.06.32.2.32.2Z"/>
  <path class="cls-1" d="M544.79,184.62c5.8.17,11.61.33,17.48.55.07.05-.34-.21-.25-.15-5.73,2.1-11.52,3.12-17.21-.44-.03-.03-.01.05-.01.05Z"/>
  <path class="cls-1" d="M537.15,192.22c-5.38,4.11-10.83,3.31-16.32.24,0,0,.01.04,0,.03,5.57.01,11.14.03,16.74.07.04.03-.43-.35-.43-.35Z"/>
</svg>