<?xml version="1.0" encoding="UTF-8"?>
<svg id="Capa_1" data-name="Capa 1" xmlns="http://www.w3.org/2000/svg" viewBox="0 0 1236.88 927.66">
  <defs>
    <style>
      .cls-1 {
        fill: #000;
      }

      .cls-1, .cls-2 {
        stroke-width: 0px;
      }

      .cls-2 {
        fill: #e30613;
      }
    </style>
  </defs>
  <path class="cls-2" d="M555.22,49.08c49.99,0,99.99.53,149.97-.22,25.06-.38,44.75,8.47,62.27,26.11,98.17,98.84,196.78,197.26,295.22,295.83,2.83,2.83,5.57,5.74,8.33,8.64,31.11,32.58,30.37,87.07.51,120.38-3.56,3.97-7.35,7.72-11.12,11.49-83.87,83.92-167.88,167.71-251.54,251.84-17.63,17.73-37.74,29.05-62.85,31.43-24.6,2.34-46.43-3.95-64.34-20.97-18.84-17.9-36.77-36.75-55.27-55.01-5.23-5.16-7.74-10.55-5.08-17.86,4.89-13.39,5.21-27.42,5.3-41.43.08-10.66-.03-21.33-.13-31.99-.2-22.36-8.38-41.56-23.29-57.99-4.92-5.43-10.14-10.59-15.34-15.76-43.02-42.76-85.74-85.8-127.07-130.21-10.89-11.7-21.33-23.85-32.66-35.11-22.71-22.56-50.34-34.19-82.4-35.16-8.44-.26-8.77-.64-8.74-9.15.27-73.99.53-147.97.86-221.96.03-7.32.17-14.68.83-21.97,2.45-26.77,23.8-48.16,50.57-50.6,7.28-.66,14.65-.61,21.98-.62,47.99-.05,95.99-.03,143.98-.03,0,.1,0,.21,0,.31ZM517.66,296.44c31.94,1.21,66.1-25.79,66.47-67.5.32-36.63-30.28-66-68.07-65.75-38.51.25-66.89,36.13-65.48,66.41,1.75,37.52,29.74,66.85,67.09,66.84Z"/>
  <path class="cls-1" d="M280.9,401.42c17.95.53,37.25,1.08,56.55,1.67,23.92.73,43.58,10.85,59.97,27.72,23.67,24.36,47.09,48.95,70.69,73.38,26.83,27.78,53.74,55.49,80.62,83.22,5.1,5.26,10.12,10.6,15.38,15.7,5.42,5.26,9.48,11.64,11.02,18.71,5.94,27.34,3.41,53.08-17.17,74.37-10.64,11.02-21.5,21.83-32.4,32.59-36.01,35.56-72.09,71.07-108.14,106.59-1.9,1.87-3.88,3.65-5.73,5.57-35.16,36.47-78.21,41.9-125.2,31.88-16.89-3.6-30.32-12.84-42.32-24.96-42.65-43.06-85.56-85.86-128.36-128.78-16.93-16.98-33.67-34.15-50.79-50.93-18.62-18.25-28.29-39.92-26.91-66.22.18-3.32.24-6.67,0-9.99-1.66-23.68,8.31-43,24.1-59.16,34.9-35.73,70.43-70.86,105.91-106.02,14.72-14.59,32.39-22.88,53.51-23.32,19.3-.4,38.6-1.31,59.28-2.04ZM277.81,481.24c-10.65,0-21.38.8-31.93-.2-14.07-1.33-24.14,4.62-33.46,14.2-22.75,23.37-45.86,46.4-68.89,69.49-6.65,6.67-11.89,14.28-16.29,22.56-8.92,16.8-5.58,32.14,5.55,46.43,2.84,3.65,6.43,6.73,9.73,10.02,23.56,23.51,47.14,47,70.69,70.53,21.66,21.65,43.7,42.93,64.78,65.13,19.48,20.52,54.1,21.91,74.86,5.84,5.77-4.47,11.4-9.2,16.58-14.33,31.71-31.36,63.3-62.84,94.85-94.37,4.22-4.22,8.68-8.46,11.78-13.47,9.14-14.77,8.2-28.07-3.16-37.89-1.51-1.3-2.8-2.84-4.21-4.26-39.31-39.75-78.59-79.53-117.96-119.23-4.21-4.24-9.07-7.84-13.35-12.02-6.63-6.5-14.45-8.83-23.63-8.53-11.97.4-23.96.1-35.94.09Z"/>
</svg>