<?xml version="1.0" encoding="UTF-8"?>
<svg id="Capa_1" data-name="Capa 1" xmlns="http://www.w3.org/2000/svg" viewBox="0 0 1104.9 1014.44">
  <defs>
    <style>
      .cls-1 {
        fill: #000;
        stroke-width: 0px;
      }

      .cls-2 {
        stroke-width: 65.2px;
      }

      .cls-2, .cls-3 {
        fill: none;
        stroke: #000;
        stroke-miterlimit: 10;
      }

      .cls-3 {
        stroke-width: 70.87px;
      }
    </style>
  </defs>
  <g>
    <path class="cls-1" d="M622.44,239.56c3.72,0,7.03.08,10.33-.01,21.84-.59,43.08,3,64.34,7.82,34.76,7.87,67.57,20.49,98.77,37.5,24.51,13.36,47.63,28.74,68.3,47.64,5.57,5.09,11.51,9.76,17.26,14.66,5.1,4.35,8.52,9.89,11.96,15.61,8.15,13.52-5.11,33.38-18.77,34.11-9.24.49-17.91-.11-24.88-7.2-1.98-2.02-4.29-3.7-6.31-5.68-24.55-23.95-52.96-42.37-83.4-57.75-33.58-16.96-69.16-28.01-106.61-31.28-75.09-6.55-145.37,8.86-209.61,49.11-22.02,13.8-42.27,30.05-62.03,46.87-4.61,3.92-9.45,5.47-15.35,5.96-10.72.89-18.4-3.66-23.56-12.41-4.97-8.43-3.77-17.29.74-25.59,1.77-3.25,4.41-6.07,6.94-8.84,12.81-14.05,28.23-25,43.67-35.82,36.13-25.33,74.86-45.47,117.28-58.26,36.34-10.96,73.21-17.9,110.93-16.43Z"/>
    <path class="cls-1" d="M618.83,353.74c43.79.12,84.69,11.68,123.32,31.77,21.41,11.14,41.48,24.39,59.11,41.01,4.79,4.51,9.32,9.38,13.47,14.49,9.12,11.26,5.41,25.26-2.57,33.5-8.28,8.55-22.48,9.54-32.49,2.43-7.3-5.19-14.37-10.73-21.24-16.48-28.36-23.71-60.14-40.27-96.58-47.84-20.02-4.16-39.96-4.97-60.36-4-47.62,2.28-88.37,21.23-125.73,49.21-6.79,5.08-13.22,10.64-19.85,15.94-4.06,3.26-8.27,6.32-13.53,7.35-11.67,2.29-21.84-2.19-27.81-12.15-4.64-7.76-3.45-21.47,2.96-29.18,7.88-9.47,17.21-17.57,26.88-25.05,32.89-25.41,69.54-43.35,110.08-52.9,28.03-6.61,36.48-7.99,64.34-8.12Z"/>
    <path class="cls-1" d="M617.57,469.8c32.15-1.83,61.16,7.62,88.14,24.74,11.58,7.35,22.25,15.86,32.91,24.33,8.28,6.58,13.33,15.26,13.5,26.72.19,12.83-10.42,25.42-27.07,24-7.65-.65-14.58-3.32-20.06-9.25-5.76-6.23-12.12-11.8-19.1-16.73-16.12-11.39-34.02-17.67-53.49-20.58-28.95-4.33-54.95,3.22-79.5,17.9-5.73,3.43-10.56,7.87-15.21,12.56-3.99,4.02-8.27,7.6-13.17,10.57-10.08,6.11-19.98,5.23-29.16-1.08-9.47-6.51-13.31-19.45-9.9-30.28.69-2.18,1.9-4.35,3.37-6.1,3.02-3.6,6.14-7.2,9.64-10.32,27.34-24.36,58.5-41.11,95.1-46.31,7.85-1.12,15.99-.16,23.99-.16Z"/>
    <path class="cls-1" d="M617.42,719.53c-24.01,1.68-50.68-13.48-58.21-39.62-14.33-49.73,21.97-83.55,59.79-83.2,10.21.09,19.7,3.35,27.96,8.71,17.38,11.29,28.31,27.5,31.61,48.12,3.68,23.02-10.84,48.73-32.12,59.68-9.45,4.87-19.41,7.04-29.03,6.31Z"/>
  </g>
  <circle class="cls-2" cx="611.9" cy="479.52" r="389.58"/>
  <line class="cls-3" x1="348.2" y1="192.76" x2="910.62" y2="755.18"/>
</svg>