<?xml version="1.0" encoding="UTF-8"?>
<svg id="Capa_1" data-name="Capa 1" xmlns="http://www.w3.org/2000/svg" viewBox="0 0 943.83 840.91">
  <defs>
    <style>
      .cls-1 {
        fill: #000;
        stroke-width: 0px;
      }
    </style>
  </defs>
  <path class="cls-1" d="M484.7,84.43c5.26,0,9.93.11,14.59-.02,30.84-.84,60.83,4.24,90.85,11.04,49.08,11.12,95.42,28.94,139.47,52.95,34.61,18.86,67.25,40.58,96.45,67.27,7.86,7.19,16.26,13.78,24.37,20.7,7.2,6.14,12.03,13.97,16.89,22.04,11.5,19.1-7.21,47.14-26.5,48.17-13.05.69-25.29-.15-35.13-10.17-2.79-2.85-6.06-5.23-8.91-8.02-34.66-33.82-74.78-59.84-117.77-81.55-47.42-23.95-97.66-39.56-150.54-44.17-106.03-9.25-205.28,12.52-296,69.35-31.1,19.49-59.69,42.43-87.59,66.18-6.51,5.54-13.35,7.73-21.67,8.42-15.14,1.26-25.99-5.17-33.27-17.52-7.02-11.91-5.33-24.42,1.05-36.14,2.5-4.58,6.23-8.58,9.8-12.48,18.1-19.84,39.87-35.3,61.67-50.58,51.02-35.76,105.72-64.21,165.61-82.27,51.31-15.48,103.38-25.28,156.65-23.2Z"/>
  <path class="cls-1" d="M479.59,245.68c61.84.17,119.59,16.49,174.14,44.87,30.24,15.73,58.57,34.44,83.48,57.91,6.77,6.37,13.16,13.24,19.02,20.46,12.89,15.9,7.63,35.67-3.63,47.3-11.69,12.08-31.75,13.48-45.88,3.43-10.31-7.33-20.29-15.15-30-23.27-40.05-33.49-84.93-56.87-136.38-67.55-28.26-5.87-56.43-7.02-85.24-5.64-67.25,3.21-124.79,29.99-177.54,69.5-9.58,7.18-18.67,15.02-28.02,22.51-5.74,4.6-11.68,8.92-19.1,10.38-16.48,3.23-30.84-3.09-39.26-17.16-6.56-10.96-4.87-30.33,4.18-41.2,11.13-13.37,24.3-24.82,37.96-35.37,46.45-35.88,98.2-61.21,155.44-74.71,39.58-9.33,51.52-11.28,90.85-11.47Z"/>
  <path class="cls-1" d="M477.82,409.57c45.4-2.58,86.37,10.76,124.46,34.93,16.36,10.38,31.42,22.39,46.48,34.36,11.7,9.3,18.82,21.55,19.06,37.73.26,18.12-14.72,35.9-38.22,33.89-10.81-.92-20.59-4.68-28.33-13.06-8.13-8.8-17.12-16.67-26.97-23.63-22.77-16.09-48.04-24.95-75.54-29.06-40.88-6.11-77.59,4.55-112.26,25.27-8.1,4.84-14.91,11.11-21.49,17.73-5.64,5.67-11.67,10.73-18.6,14.93-14.24,8.62-28.21,7.39-41.18-1.52-13.37-9.19-18.79-27.47-13.98-42.77.97-3.08,2.69-6.14,4.76-8.62,4.27-5.09,8.67-10.16,13.62-14.57,38.6-34.4,82.61-58.05,134.29-65.4,11.08-1.58,22.57-.23,33.88-.23Z"/>
  <path class="cls-1" d="M477.61,762.22c-33.9,2.37-71.57-19.04-82.2-55.95-20.23-70.23,31.02-117.98,84.43-117.49,14.41.13,27.82,4.73,39.48,12.3,24.54,15.95,39.97,38.83,44.64,67.96,5.2,32.5-15.31,68.81-45.35,84.28-13.34,6.87-27.41,9.95-40.99,8.91Z"/>
</svg>