<?xml version="1.0" encoding="UTF-8"?>
<svg id="Capa_1" data-name="Capa 1" xmlns="http://www.w3.org/2000/svg" viewBox="0 0 1304.52 1189.43">
  <defs>
    <style>
      .cls-1 {
        fill: #000;
      }

      .cls-1, .cls-2 {
        stroke-width: 0px;
      }

      .cls-2 {
        fill: #e30613;
      }
    </style>
  </defs>
  <path class="cls-1" d="M1016.45,458.08c3.53,5.48,2.31,10.92,2.31,16.09.04,180.65-.56,361.3.29,541.94.28,59.22-44.95,119.96-113.38,129.38-12.58,1.73-25.14,2.81-37.83,2.81-161.32-.05-322.63-.08-483.95.03-16.77.01-33.34-1.25-49.39-6.02-45.79-13.62-75.07-43.96-88.94-89.39-4.5-14.72-6.67-29.74-6.66-45.28.17-243.97.15-487.94.08-731.92,0-15.39.69-30.69,4.23-45.68,9.06-38.35,30.46-67.54,65.19-86.57,13.03-7.14,27.11-11.07,41.87-12.37,6.63-.58,13.31-.83,19.97-.83,107.32-.04,214.64-.03,321.96-.02,10.01,0,20-.14,29.28,4.74,5.04,2.65,6.4,4.45,3.83,9.17-6.48,11.89-8.42,25.19-12.07,37.92-2.27,7.93-6.66,11.81-14.1,15.06-10.2,4.45-20.44,5.1-31.14,5.09-97.99-.1-195.98-.11-293.97-.06-7.94,0-15.9-.59-23.72,2.25-24.72,9.01-39.48,29.52-39.5,56.25-.1,147.32-.13,294.63-.15,441.95-.01,103.99,0,207.98.08,311.96,0,7.27-.51,14.51,2.09,21.72,8.55,23.71,30.49,40.46,55.68,41.87,2.66.15,5.33.06,8,.06,163.31,0,326.63-.02,489.94-.02,13.34,0,26.67.17,39.46-4.69,21.99-8.36,37.03-22.72,41.99-46.57,2.2-10.58,2.25-21.17,2.25-31.82,0-167.31,0-334.63.02-501.94,0-6,.01-11.99.2-17.99.15-4.78,2.94-7.3,7.59-7.34,20.07-.15,39.4-5,58.49-9.78Z"/>
  <path class="cls-2" d="M946.71,417.57c-55.45,2.4-99.51-19.2-135.25-56.99-43.3-45.78-61.18-100.79-49.72-163.58,12.91-70.74,54.73-118.11,120.61-145.05,27.2-11.12,55.85-12.21,84.51-9.75,12.42,1.06,24.97,4.59,36.71,9.01,60.5,22.74,101.77,64.46,120.69,126.69,8.84,29.06,9.96,58.6,3.3,88.79-14.58,66.11-52.93,112.06-114.62,138.63-21.54,9.27-44.24,14.65-66.22,12.26ZM971.29,223.06h.33c0-27.93.02-55.86-.02-83.79,0-5.31-.2-10.63-.43-15.94-.16-3.63-1.85-6.53-5.52-7.31-15.43-3.28-30.23-4.3-42.45,8.97-10.34,11.23-21.2,22.02-32.26,32.55-12.35,11.76-13.72,14.95.16,29.03.47.47.95.93,1.45,1.37,7.58,6.77,11.58,6.93,18.93.26,4.91-4.46,9.44-9.33,14.32-13.83.7-.64,2.6-.65,3.54-.17.94.48,1.49,1.9,2,3,.25.54.03,1.3.03,1.96-.18,41.88-.38,83.77-.53,125.65-.02,5.32-.09,10.67.44,15.94.74,7.27,4.32,10.82,11.33,11.67,3.29.4,6.64.31,9.96.33,16.84.07,18.52-1.24,18.66-17.93.25-30.59.07-61.18.07-91.77Z"/>
  <path class="cls-1" d="M577.34,406.13c36.59,0,73.18.12,109.76-.08,8.96-.05,16.89,1.47,24.03,7.5,13.7,11.56,16.25,24.73,11.12,41.33-4.49,14.55-16.95,23.03-33.57,23.2-30.6.32-61.2.13-91.8.14-41.24,0-82.49,0-123.73,0-4.66,0-9.31-.12-13.97-.07-14.4.14-28.55-9.46-33.09-29.26-3.48-15.2,5.8-33.16,19.91-40.11,6.25-3.08,12.96-2.59,19.58-2.59,37.25-.04,74.51-.02,111.76-.02v-.03Z"/>
  <path class="cls-1" d="M574.64,927.03c-32.62,0-65.24.07-97.86-.05-6.63-.02-13.27-.61-19.89-1.16-6.2-.52-11.3-3.47-15.94-7.53-12.86-11.21-18.26-26.19-13.86-38.96,4.98-14.44,20.48-26.27,36.25-27,9.3-.43,18.63.04,27.95.05,61.91.04,123.82.06,185.74.11,5.32,0,10.71-.32,15.95.37,16.16,2.13,29.57,16.19,30.96,31.95,1.71,19.28-8.26,34.92-25.67,40.1-7.76,2.31-15.79,2.14-23.78,2.14-33.29-.01-66.57,0-99.86,0Z"/>
  <path class="cls-1" d="M575,706.11c-34.6,0-69.2,0-103.8,0-3.99,0-8.03.23-11.96-.27-22.13-2.84-33.4-22.41-33.57-36.46-.22-17.86,14.69-34.16,33.23-36.32,7.25-.85,14.61-.98,21.92-.99,66.54-.14,133.08-.06,199.62-.34,13.95-.06,26.43,2.28,35.59,14,9.03,11.55,10.88,24.25,5.15,37.48-5.67,13.09-16.11,20.8-30.4,22.69-3.93.52-7.97.16-11.97.16-34.6,0-69.2,0-103.8,0v.05Z"/>
</svg>