<?xml version="1.0" encoding="UTF-8"?>
<svg id="Capa_1" data-name="Capa 1" xmlns="http://www.w3.org/2000/svg" viewBox="0 0 1555.2 925.1">
  <defs>
    <style>
      .cls-1 {
        fill: #000;
        stroke-width: 0px;
      }
    </style>
  </defs>
  <path class="cls-1" d="M734.05,821.58c-146.62,0-293.23,0-439.85,0-5.33,0-10.69.26-15.99-.14-15.94-1.2-26.66-11.7-27.34-26.42-.68-14.67,8.97-27.06,23.85-30.08,3.86-.78,7.95-.52,11.94-.53,147.95-.09,295.9-.19,443.84-.23,150.61-.04,301.23-.02,451.84,0,3.99,0,8.06-.18,11.96.49,14.3,2.46,24.34,15.27,23.75,29.86-.64,16.02-10.03,25.75-26.17,26.89-4.64.33-9.33.14-13.99.14-147.95,0-295.9,0-443.84,0v.03Z"/>
  <path class="cls-1" d="M686.38,712.49c.22-78.63.5-157.26.62-235.89.02-15.81-.24-15.82-12.42-32.19,0,0-.44.49-.44.49,11.81,1.76,16.01,10.46,18.31,20.55.72,3.15.15,6.6.15,9.91-.02,68.93-.03,137.86-.09,206.79-.01,10.41.97,21.1-6.61,29.87,0,0,.49.48.49.48Z"/>
  <path class="cls-1" d="M740.58,714.23c1.28-.02,3.08-.61,3.77.02,11.85,10.8,26.32,11.12,41.16,11.09,88.4-.17,176.8-.14,265.2-.14,30.55,0,61.11.07,91.66.11l-.5-.55c-6.25,5.47-13.89,3.63-21.01,3.65-41.92.11-83.84-.1-125.76-.08-73.86.03-147.72-.13-221.57.49-13.96.12-24.6-3.75-32.58-15.02.05-.06-.37.41-.37.41Z"/>
  <path class="cls-1" d="M997.83,324.04c.55-7.92,1.51-15.84,1.58-23.76.58-66.84,2.58-133.68.31-200.53-.27-7.96-.38-15.92-3.23-23.48-1.23-3.26-1.52-6.36-.01-9.47-.09.05-.53.32-.53.32,7.24,10.85,9.29,22.62,9.18,35.75-.54,63.82-.23,127.65-.21,191.47,0,8.65.47,17.38-3.61,25.39-.79,1.55-2.59,2.58-3.93,3.85l.46.47Z"/>
  <path class="cls-1" d="M1153.65,711.85c3.52-21.83,2.99-43.9,3.12-65.84.41-66.66,0-133.32-.09-199.98,0-1.33-.02-2.67-.05-4-.54-26.02-.66-26.43-13.54-46.24-.02.02-.42.43-.42.43,13.72,6.18,18.88,17.17,18.84,31.77-.25,86.84-.29,173.69-.4,260.53-.01,8.51.47,17.2-7.95,22.8.03.03.5.54.5.54Z"/>
  <path class="cls-1" d="M980.14,61.93c-9.15-2.26-18.48-1.92-27.78-1.92-112.38.04-224.76.11-337.14.13-1.94,0-3.87-.43-5.97-2.06,3.92-.28,7.83-.8,11.75-.8,114.38-.04,228.75-.04,343.13,0,3.96,0,7.99-.03,11.84.71,1.46.28,2.51,2.7,3.74,4.15l.42-.21Z"/>
  <path class="cls-1" d="M317.85,725.21c26.57,0,53.14-.01,79.72-.02,80.53,0,161.05-.13,241.58.11,11.91.04,23.9-2.29,35.76.59l-.51-.6c-5.19,3.96-11.19,3.24-17.17,3.24-101.47-.14-202.95-.22-304.42-.29-8.62,0-17.24.21-25.86.2-3.35,0-6.61-.54-8.67-3.71,0,0-.42.48-.42.48Z"/>
  <path class="cls-1" d="M803.96,398.11c1.19-1.4,2.25-3.85,3.6-4.03,5.22-.67,10.53-.81,15.81-.81,102.74-.03,205.47,0,308.21,0,3.95,0,8.02-.44,11.06,2.97.02-.02.42-.43.44-.45-19.28,0-38.58.02-57.88.04-83.94.07-167.88.11-251.82.22-9.97.01-20-.51-29.86,1.75l.43.32Z"/>
  <path class="cls-1" d="M728.13,422.61c6,.06,7.99,4.64,8.8,9.12,1.05,5.83,1.13,11.88,1.14,17.83.16,62.46.24,124.92.32,187.38.02,13.29.62,26.62-.27,39.85-.85,12.66,3.27,24.8,2.5,37.38-.05.05.38-.42.32-.36-4.68-5.91-7-12.55-6.71-20.21.26-6.61-.04-13.25-.03-19.87.1-72.87.14-145.74.41-218.62.04-11.42-.91-22.45-6.18-32.82.08-.09-.31.32-.31.32Z"/>
  <path class="cls-1" d="M585.1,337.32c-2.81-1.72-6.1-3.18-6.47-6.95-.39-3.96-.4-7.97-.4-11.95.06-72.53.43-145.06-.06-217.58-.07-10.9,4.16-20.57,4.89-30.98.05.06-.03-.09-.03-.09.62,3.2,2.38,6.68,1.68,9.55-3.08,12.46-2.29,25.07-2.3,37.64-.03,61.72,0,123.45.04,185.17,0,11.92-.2,23.85,2.19,35.63l.47-.43Z"/>
  <path class="cls-1" d="M316.95,395.03c5.72-2.2,11.68-1.84,17.65-1.82,69.49.19,138.99.37,208.48.47,7.27.01,14.55-.46,21.83-.66,3.4-.09,6.58.41,8.34,3.89l.48-.49c-79.19-.11-158.39-.22-237.58-.35-6.59-.01-13.33,1.59-19.58-1.63.05.08.39.59.39.59Z"/>
  <path class="cls-1" d="M964.39,351.43c-.66,1.89-1.51,3.76-3.75,4-3.94.41-7.9.82-11.86.83-43.01.06-86.03.04-129.07-1.93l145.17-2.54-.5-.35Z"/>
  <path class="cls-1" d="M411.93,447.57c-.19,26.17-.37,52.34-.56,78.52l.38-.11c-3.54-8.59-4.96-17.53-4.88-26.8.1-11.11.12-22.22-.11-33.33-.14-6.78,1-12.99,5.64-18.2l-.48-.07Z"/>
  <path class="cls-1" d="M302.21,708.06c-3.34-1.9-3.78-5.14-3.78-8.48-.03-25.68-.02-51.36,1.49-77.05.6,28.66,1.2,57.32,1.8,85.98l.48-.45Z"/>
  <path class="cls-1" d="M305.19,408.19c-5.58,25.94-3.79,52.38-6.25,78.61-.25-20.3-.55-40.6-.73-60.9-.06-6.8,1.08-13.2,7.44-17.3.02,0-.46-.41-.46-.41Z"/>
  <path class="cls-1" d="M999.74,445.71c-25.63,2.41-51.26,1.24-76.9.26,25.6-1.98,51.19-2.9,76.79.09l.11-.35Z"/>
  <path class="cls-1" d="M915.14,523.19c6.22,3.19,12.97,2.19,19.54,2.28,15.91.22,31.83.33,47.74.29,6.01-.01,11.92.25,17.64,2.24,0-.03,0-.12,0-.12-24.23.24-48.46.55-72.69.67-4.42.02-9.43.61-11.73-4.87l-.5-.49Z"/>
  <path class="cls-1" d="M412.41,447.64c24.61-5.08,49.46-3.7,74.29-2.7,4.55.18,9.11.26,13.67.39l.18-.21c-16.95,2.69-34.04,1.82-51.09,1.99-12.46.13-24.92.34-37.45.49-.07-.03.41.04.41.04Z"/>
  <path class="cls-1" d="M411.37,526.09h77.21c-2.86,1.4-3.96,2.4-5.07,2.41-14.63.14-29.26.16-43.89.19-9.31.02-18.65.36-27.75-2.76-.11.05-.5.16-.5.16Z"/>
  <path class="cls-1" d="M999.63,446.06c4.38,27.2,3.48,54.42.43,81.74,0,.08,0,.17,0,.2-2.39-27.33-1.57-54.71-.37-82.19.05-.1-.06.25-.06.25Z"/>
  <path class="cls-1" d="M500.36,445.33c2.99,19.61,3,52.79.03,69.15-2.75-16.9-2.73-52.57.09-69.27.06-.09-.12.12-.12.12Z"/>
  <path class="cls-1" d="M906.3,507.73c0-15.72-.05-31.43.07-47.15.01-1.76.93-3.52,2.53-9.16v56.68c-.86-.12-1.73-.25-2.59-.37Z"/>
  <path class="cls-1" d="M614.53,416.38c10.22,1.36,19.15,5.55,26.89,12.34.01,0,.47-.52.47-.52-10.95.22-19.25-5.33-26.91-12.3l-.45.48Z"/>
  <path class="cls-1" d="M700.44,391.6c3.06-1.12,6.12-1.83,8.98.47,5.46,4.39,10.91,8.8,12.74,16.07l.47-.47c-5.26-.29-6.78-5.21-9.99-8.04-3.7-3.27-6.27-8.28-12.22-8.2.04-.12.02.18.02.18Z"/>
  <path class="cls-1" d="M301.73,708.52c6.5,4.48,11.56,10.34,16.13,16.69,0,0,.42-.48.42-.47-8.39-2.62-14.79-7.17-16.07-16.67,0,0-.48.45-.48.45Z"/>
  <path class="cls-1" d="M997.37,323.57c1.02,4.58-2.11,7.37-4.49,10.5-1.96,2.56-4.84,4.69-4.01,8.56,0,0,.04-.06.04-.06-2.2-8.67,3.19-13.67,8.93-18.51-.02-.02-.47-.49-.47-.49Z"/>
  <path class="cls-1" d="M658.21,436.82c6.65.04,12.14,2.37,15.92,8.08,0,0,.44-.49.45-.49-6.12-1.06-11.82-2.98-15.88-8.09l-.49.5Z"/>
  <path class="cls-1" d="M674.91,725.89c.16-7.61,6.44-9.97,11.48-13.4,0,0-.49-.48-.49-.48-.47,7.35-5.67,10.58-11.51,13.25.02.03.53.63.53.63Z"/>
  <path class="cls-1" d="M772.58,397.74c-1.83-4.04-2.61-8.24-2.32-12.7.23-3.6,2.07-5.65,5.43-6.55l-.38-.47c-1.05,6.53-2.09,13.06-3.14,19.59l.42.12Z"/>
  <path class="cls-1" d="M1142.37,725.32c1.34-6.53,7.51-8.97,11.3-13.44-.03-.03-.5-.54-.52-.57.9,8.38-4.57,11.44-11.29,13.46,0,.01.51.56.51.56Z"/>
  <path class="cls-1" d="M775.69,378.5c-.34-10.15,1.83-12.22,11.89-11.52-.05-.09-.27-.55-.27-.55-5.83,1.93-9.07,6.61-12.07,11.53.06.07.45.54.45.54Z"/>
  <path class="cls-1" d="M977,351.16q2.1-8.77,11.91-8.58s-.04.05-.04.05c-6.29-.47-9.48,3.45-12.01,8.35-.11-.09.15.17.15.17Z"/>
  <path class="cls-1" d="M722.16,408.14c4.41,3.76,9.63,7.19,6.03,14.4-.07.07.32-.34.24-.25-.78-5.28-6.67-8.62-5.82-14.6.01-.02-.46.46-.46.46Z"/>
  <path class="cls-1" d="M789.7,359.7c1.68-.71,3.31-1.62,5.05-2.04.88-.21,1.97.5,2.96.79-.99.36-1.97.98-2.97,1.02-1.82.08-3.65-.19-5.48-.32l.44.55Z"/>
  <path class="cls-1" d="M615.24,347.65c5.12.27,6.96,3.6,7.58,8.09l.02-.04c-2.38-2.8-4.76-5.61-7.14-8.41l-.46.37Z"/>
  <path class="cls-1" d="M622.82,355.73q8.31-3.54,11.99,2.96s.05.03.05.03c-3.19-4.22-7.47-4.15-12.02-3.05,0,.02-.03.06-.03.06Z"/>
  <path class="cls-1" d="M646.93,363.34c-2.68-5.04-7.36-4.84-12.06-4.62-.01,0-.06-.02-.06-.03,5-.89,10.41-2.74,11.99,4.85l.13-.2Z"/>
  <path class="cls-1" d="M646.8,363.54c5.18-3,10.09-3.84,14.19,1.78.03-.02.49-.5.49-.5-4.78-.55-9.56-1.1-14.45-1.57-.11.09-.24.28-.24.28Z"/>
  <path class="cls-1" d="M789.6,404.67c-.92.74-1.8,1.55-2.8,2.17-.3.19-.91-.11-1.38-.19,1.56-.49,3.13-.99,4.69-1.48l-.51-.5Z"/>
  <path class="cls-1" d="M615.7,347.28c-4.96,1.57-9.56.32-14.04-1.8.03-.04-.44.59-.44.59,4.87-1.36,9.63-1.76,13.97,1.64.05-.05.51-.42.51-.42Z"/>
  <path class="cls-1" d="M604.92,413.55c-2.61-1.17-5.27-2.28-5.85-5.58-.02.01-.53.5-.53.5,2.9.85,6.05,1.44,5.86,5.52.05-.05.51-.45.51-.45Z"/>
  <path class="cls-1" d="M592.92,402.02c1.86,2.16,3.72,4.32,5.6,6.47.02-.02.53-.5.55-.52-5.44,1.28-4.66-3.45-5.94-6.19l-.21.24Z"/>
  <path class="cls-1" d="M803.53,397.8c-3.59,1.86-7.25,1.85-10.92.52.05.08.32.59.32.59,3.59-.94,7.13-2.42,10.98-.84.06.05-.37-.27-.37-.27Z"/>
  <path class="cls-1" d="M573.25,396.92c3.1.46,6.59.11,8.15,3.85.01,0,.47-.51.47-.51-3.41.22-6.43-.4-8.12-3.83-.01,0-.5.5-.5.5Z"/>
  <path class="cls-1" d="M658.7,436.32c-4.34.3-4.64-3.35-5.91-6.05l-.32.27c1.91,2.1,3.82,4.19,5.73,6.29,0,0,.5-.5.5-.5Z"/>
  <path class="cls-1" d="M593.13,401.78c-4.11,2.16-8.13,3.6-11.26-1.53-.01,0-.47.51-.48.52,3.76.48,7.54.96,11.42,1.34.11-.09.32-.33.32-.33Z"/>
  <path class="cls-1" d="M652.79,430.27c-4.09,1.73-8.06,2.87-10.89-2.07-.01,0-.47.52-.48.53,3.6.66,7.21,1.32,10.94,1.9.12-.09.44-.35.44-.35Z"/>
  <path class="cls-1" d="M688.2,383.34c3.33-.75,6.77-2.95,9.81.66,0,0,.44-.5.44-.5-3.37-.16-6.73-.33-10.1-.49l-.16.33Z"/>
  <path class="cls-1" d="M614.99,415.9c-3.76.98-6.96-.34-10.01-2.41-.05.05-.51.45-.56.5,3.83-1.31,7.45-1.52,10.1,2.41.02-.02.47-.5.47-.5Z"/>
  <path class="cls-1" d="M678.78,372.3c2.92.34,5.58,1.22,7.56,3.55-.02.03.43-.49.43-.49-3.17.29-6.62,1.15-7.46-3.51-.03.02-.52.45-.52.45Z"/>
  <path class="cls-1" d="M671.85,367.23c2.29,1.7,4.58,3.41,6.9,5.09.03-.02.52-.45.55-.47-3.54.14-6.33-.84-7.01-4.88l-.45.26Z"/>
  <path class="cls-1" d="M672.3,366.97c-3.9.79-7.78,1.49-10.78-2.17-.02.02-.49.5-.52.53,3.87-1.06,7.22.77,10.77,1.97.09-.06.53-.33.53-.33Z"/>
  <path class="cls-1" d="M964.89,351.78c3.83-2.38,7.76-3.33,12.02-.71.1.09-.16-.18-.05-.09-4.05.23-8.21.38-12.41.49-.05-.03.45.31.45.31Z"/>
  <path class="cls-1" d="M594.49,340.6c3.63.08,6.89.61,6.75,5.42-.02.03.45-.59.42-.55-2.14-1.89-5.99-1.69-6.69-5.36-.02.01-.48.49-.48.49Z"/>
  <path class="cls-1" d="M584.63,337.75c3.92-1.25,7.34-.77,9.84,2.86.02-.01.48-.49.5-.51-3.51-.07-7.06-.07-9.83-2.83-.04.04-.51.47-.51.47Z"/>
  <path class="cls-1" d="M979.72,62.14l12.32-.17.14-.28c-3.94.59-7.88,2.14-11.94.19-.09.06-.51.27-.51.27Z"/>
  <path class="cls-1" d="M309.6,404.74c-.63,2.21-2.24,3.17-4.4,3.46-.02,0,.46.41.44.41,1.02-1.7,1.92-3.55,4.39-3.38,0,0-.43-.49-.43-.49Z"/>
  <path class="cls-1" d="M790.11,405.16c.98-2.03,1.96-4.06,2.88-6.17-.07-.09-.34-.59-.39-.67.39,2.72.17,5.2-3.01,6.34,0,.01.51.51.51.51Z"/>
  <path class="cls-1" d="M314.47,401.33c-1.62,1.13-3.24,2.27-4.86,3.41,0,0,.43.49.43.5,1.06-1.94,2.59-3.22,4.89-3.39l-.46-.52Z"/>
  <path class="cls-1" d="M772.17,397.62l1.45-.71s-.93.78-.98.81c-.05.03-.47-.1-.47-.1Z"/>
  <path class="cls-1" d="M314.92,401.84c.72-2.22,1.44-4.43,2.09-6.73-.07-.08-.4-.59-.46-.67.68,2.66.33,5.06-2.12,6.85.03.03.48.55.48.55Z"/>
  <path class="cls-1" d="M698.01,384c2.36,1.96,2.57,4.63,2.45,7.5-.03.1,0-.2-.05-.08-.69-2.55-1.34-5.21-1.97-7.9.01-.02-.43.48-.43.48Z"/>
  <path class="cls-1" d="M688.36,383.01c-.54-2.53-1.09-5.07-1.61-7.63.02-.03-.43.49-.41.46,2.58,1.91,2.57,4.53,1.92,7.41-.05.09.1-.24.1-.24Z"/>
  <path class="cls-1" d="M789.26,359.16c-.69,2.35-1.39,4.71-2.01,7.16.07.1.29.57.33.65-.37-2.67-.21-5.26,2.15-7.23-.03-.04-.47-.58-.47-.58Z"/>
  <path class="cls-1" d="M590.1,68.97c-1.91,3.6-4.48,1.92-7.02.84-.04-.05.04.11-.02.05,2.46-.18,4.98-.31,7.5-.43,0,0-.46-.46-.46-.46Z"/>
  <path class="cls-1" d="M992.04,61.97c-.13,2.72,1.3,4.35,3.81,5.22.1-.07.54-.34.62-.39-4.12.81-5.22-1.19-4.34-5.02.05-.08-.09.2-.09.2Z"/>
  <path class="cls-1" d="M590.56,69.43c.75-2.01,1.51-4.02,2.27-6.03l-.41-.38c.55,2.5.31,4.68-2.32,5.94.01.02.47.47.47.47Z"/>
  <path class="cls-1" d="M592.82,63.4c.54,0,1.09-.01,1.63-.02-.64-.07-1.28-.15-1.98-.29-.06-.07.35.31.35.31Z"/>
  <path class="cls-1" d="M915.65,523.67l-1.4.23s.92-.65.91-.68c-.01-.04.49.45.49.45Z"/>
</svg>