<?xml version="1.0" encoding="UTF-8"?>
<svg id="Capa_1" data-name="Capa 1" xmlns="http://www.w3.org/2000/svg" viewBox="0 0 1282.36 1272.57">
  <defs>
    <style>
      .cls-1 {
        fill: #000;
        stroke-width: 0px;
      }
    </style>
  </defs>
  <path class="cls-1" d="M193.78,953.83c.74-9.46,3.6-17.41,8.39-24.92,13.24-20.79,26.18-41.76,39.25-62.66,1.41-2.26,2.93-4.45,4.28-6.74,8.83-14.89,8.59-14.8,1.61-30.98-9.23-21.4-18.41-42.83-26.9-64.53-3.48-8.9-8.4-14.34-18.07-16.34-22.81-4.7-45.47-10.11-68.18-15.29-9.07-2.07-18.26-3.51-26.92-7.35-12.89-5.71-20.02-14.88-19.99-29.29.04-16.66-.19-33.33-.19-50,0-27.33-.12-54.66.21-81.99.27-23.05,6.99-33.01,28.74-39.55,20.97-6.31,42.44-11,63.73-16.23,10.33-2.54,20.75-4.76,31.16-6.96,4.44-.94,6.82-3.86,8.34-7.74,3.41-8.68,6.94-17.31,10.08-26.09,6.07-16.94,12.08-33.9,21.77-49.22,2.8-4.42,2.78-8.54.05-13.03-10.04-16.5-19.97-33.07-29.88-49.65-7.86-13.15-16.08-26.11-23.32-39.6-9.31-17.33-7.9-27.3,5.89-41.38,26.12-26.67,52.61-52.97,78.96-79.41,7.06-7.08,14.32-13.97,21.23-21.19,8.55-8.93,17.75-10.5,28.78-4.44,22.18,12.19,44.59,23.97,66.94,35.85,10.59,5.63,21.29,11.05,31.89,16.66,3.11,1.64,6.17,2.63,9.36.6,21.57-13.68,46.13-20.66,69.21-30.95,2.43-1.09,4.89-2.13,7.39-3.05,7.62-2.78,11.51-8.13,12.92-16.19,4.12-23.6,8.58-47.15,13.2-70.66,1.66-8.48,3.63-16.97,6.39-25.14,5.5-16.3,17.19-24.13,34.62-24.11,44,.04,88,.57,131.99-.13,16.65-.27,26.38,7.36,32.1,21.57,2.45,6.09,3.49,12.79,4.91,19.26,5.7,25.95,11.7,51.86,16.71,77.94,1.57,8.17,5.17,13.32,12.44,16.51,21.34,9.37,43.33,17.55,63.77,28.59,14.09,7.61,24.19,7.06,37.58-1.92,24.85-16.66,50.93-31.64,78.6-43.47,3.06-1.31,6.05-2.8,9.15-4.02,7.58-2.99,14.37-1.39,20.42,3.85,1.51,1.31,3.05,2.6,4.43,4.04,32.31,33.66,64.73,67.2,96.84,101.05,16.56,17.46,17.05,24.62,5.16,45.99-13.94,25.05-29.38,49.17-45.85,72.6-4.92,7-4.97,12.44-1.45,20.03,11.75,25.36,22.71,51.11,31.48,77.7,1.95,5.92,5.52,8.17,11.42,9.25,32.69,6.01,64.96,13.79,96.56,24.16,18.53,6.08,22.92,11.78,23.14,32.26.5,45.99.17,91.99.67,137.98.16,14.8-7.03,23.53-19.73,29.16-12.93,5.73-27.01,7.04-40.51,10.53-18.67,4.83-37.59,8.72-56.49,12.61-8.73,1.79-14.02,6.16-16.68,14.92-7.76,25.52-16.97,50.54-30.2,73.79-3.92,6.9-2.91,12.23.97,18.41,11.69,18.59,23.13,37.33,34.5,56.12,5.52,9.12,10.7,18.43,15.95,27.71,6.27,11.08,4.99,21.72-2.26,31.83-1.93,2.69-4.11,5.25-6.45,7.59-30.2,30.13-60.44,60.21-90.7,90.29-2.36,2.35-4.67,4.79-7.32,6.79-9.11,6.86-18.05,9.39-29.21,2.78-25.78-15.28-52.18-29.5-78.32-44.17-24.48-13.73-22.45-13.6-47.66-1.85-19.29,8.99-39.27,16.54-59.1,24.33-6.83,2.68-10.36,6.42-11.79,14.11-5.49,29.41-11.82,58.67-18.07,87.94-1.1,5.18-3.11,10.19-5.03,15.16-4.25,10.96-12.21,17.17-24.08,17.92-3.99.25-8,.18-12,.17-41.33-.08-82.68-.91-123.98.04-21.76.5-31.88-10.19-36.5-29.37-5.14-21.32-8.83-42.99-13.15-64.5-1.57-7.81-3.92-15.56-4.56-23.45-.8-9.92-5.5-15.37-14.59-18.99-23.51-9.36-46.83-19.21-70.03-29.33-8.26-3.61-14.75-2.2-22.39,2.24-23.04,13.38-46.51,26.03-70.04,38.55-8.78,4.67-18.01,8.66-27.33,12.14-10.29,3.84-19.67,1.31-27.6-6.32-2.4-2.31-4.77-4.66-7.12-7.02-28.19-28.37-56.38-56.75-84.54-85.14-5.63-5.68-11.49-11.24-13.39-19.49-.6-2.59-1.18-5.18-1.63-7.18ZM641.88,838.26c33.96.78,55.57-2.12,75.81-9.15,101.94-35.4,168.46-138.11,141.76-256.46-12.57-55.73-45.42-98.67-93.25-129.8-52.11-33.92-108.84-40.91-168.44-26.44-50.29,12.21-91.46,38.59-121.86,81.25-37.64,52.83-50.56,110.55-36.12,174.04,17.78,78.14,67.15,127.96,140.46,156.12,22.71,8.72,46.58,10.6,61.63,10.45Z"/>
</svg>