<?xml version="1.0" encoding="UTF-8"?>
<svg id="Capa_1" data-name="Capa 1" xmlns="http://www.w3.org/2000/svg" viewBox="0 0 1078.39 1018.61">
  <defs>
    <style>
      .cls-1 {
        fill: #000;
        stroke-width: 0px;
      }
    </style>
  </defs>
  <path class="cls-1" d="M303.25,611.54c19.32,0,38.64-.01,57.97.01,4.66,0,9.34-.05,13.98.27,8.53.59,15.14,4.81,20.01,11.67,12.63,17.8,4.57,45.46-15.45,53.83-6.32,2.64-12.84,3.3-19.55,3.27-11.31-.06-22.62-.16-33.93-.11-2.59.01-4.28,4.03-2.49,6.02,4.44,4.95,8.97,9.83,13.64,14.55,40.81,41.23,89.01,69.57,145.82,82.31,42.92,9.63,85.91,8.81,128.8-.81,69.26-15.53,126.86-50.71,173.8-103.55,34.84-39.22,57.72-84.42,66.38-136.48,1.64-9.85,3.21-19.74,5.59-29.42,4.8-19.51,20.26-30.16,39.99-28.17,11.54,1.16,19.56,7.74,22.82,19.22,2.58,9.09,2.87,18.42,1.72,27.76-7.07,57.8-25.6,111.58-58.57,159.7-54.21,79.13-128.93,129.66-221.09,154.58-63.04,17.05-126.7,17.58-189.68.74-65.64-17.55-122.9-50.47-169.52-100.67-.91-.98-1.75-2.02-2.72-2.92-1.87-1.73-3.6-4.56-6.62-2.65-2.65,1.68-1.38,4.69-1.43,7.19-.2,9.98-.32,19.97-.69,29.95-.15,3.98-.54,8-1.35,11.9-4.92,23.83-29.43,34.8-50.99,22.91-9.01-4.97-12.1-13.89-14.46-22.92-1.15-4.42-.88-9.26-.89-13.91-.14-41.98-.2-83.95-.27-125.93,0-2.66-.03-5.34.22-7.99,1.72-18.61,13.59-29.72,32.99-30.02,21.98-.34,43.97-.08,65.96-.08v-.26ZM395.94,817.95l-.31-1.44-.06.97c.56.21,1.12.42,1.67.62-.44-.04-.88-.09-1.3-.15ZM225.67,806.29c.92-.22,1.85-.44,2.77-.66-.98.18-1.96.37-2.93.55l-.36-1.4s.48,1.51.52,1.51ZM385.86,666.05c-.91,1.09-1.6,1.03-2.07-.18.82-.19,1.63-.38,2.39-.51-1.5.42-1.75.2-.74-.66.14.45.28.9.42,1.35ZM385.96,622.65c-.28.17-.56.34-.85.52.42-.07.84-.15,1.26-.22.09,3.82.17,7.64.26,11.45.5,1.04.94,2.1,1.51,3.09.27.46.96,1.18,1.18,1.1,1.2-.5,1.37-1.61.22-2.53-.83-.67-2.04-.89-2.99-1.44,1.54-4.1-.1-8.04-.59-11.97ZM911.07,498.38c-5.56,1.43-9.11-5.12-15.48-3.53,5.11,4.17,10.18,5.17,15.91,3.37-2.84,11.24-2.74,11.25,1.71,20.31.4-7.6-4.31-13.68-2.14-20.14ZM214.23,730.33c.3,0,.61.01.91.02v-85.02l-.91-.03v85.03ZM363.01,670.53c-.01-.27-.02-.55-.04-.82h-21.01c0,.27.02.55.03.82h21.02ZM262.29,748.42c-2.86,10.65-1.99,16.82,0,22.99v-22.99ZM515.51,846.95c-4.03-1.65-7.95-4.12-11.11,0h11.11ZM515.68,797.87c-1.35.56-2.3.96-3.24,1.36,1.29.2,2.58.55,3.86.55,1.27,0,2.54-.38,3.81-.6-1.58-.47-3.17-.93-4.43-1.3ZM476.14,842.32c2.82.75,5.61,1.54,8.37-.2-2.83-1.06-5.61-1.45-8.37.2ZM578.33,847.03c.72-.39,1.43-.78,2.15-1.16-.56-.13-1.14-.4-1.69-.36-1.15.1-2.29.36-3.43.56.99.32,1.98.64,2.97.96ZM865.98,523.16c.09,1.06.18,2.12.27,3.18.31-.42.77-.8.91-1.28.15-.5.11-1.13-.07-1.63-.07-.2-.72-.19-1.11-.27ZM446.19,834.8l.67-.76-1.32-.03.65.8Z"/>
  <path class="cls-1" d="M897.05,270.02c0,21.99.11,43.99-.08,65.98-.05,5.29-.1,10.92-1.86,15.78-5.37,14.82-15.05,25.03-31.97,25.91-3.99.21-7.99.35-11.99.35-35.32-.05-70.65-.1-105.97-.24-4.65-.02-9.37-.1-13.94-.89-13.45-2.33-22.28-12.16-23.72-25.87-2.4-22.84,9.92-38.95,32.79-41.65,9.87-1.16,19.95-.49,29.92-.85,1.77-.06,4.27-.6,5.09-1.82,1.9-2.83-.66-4.92-2.49-6.73-6.16-6.09-12.18-12.35-18.72-18.03-41.98-36.46-89.43-62.25-144.12-74.13-70.72-15.37-137.94-5.33-201.26,28.82-71.67,38.64-121.13,96.86-147.34,174.13-4.89,14.42-7.22,29.72-10.63,44.63-1.19,5.19-1.44,10.68-3.2,15.65-8.98,25.27-28.33,31.1-51.16,22.7-10.25-3.77-14.73-13.11-15.96-23.6-.54-4.58-.21-9.35.39-13.95,7.99-61.32,30.31-117.08,65.86-167.52,56.33-79.94,133.35-129.23,228.2-150.15,51.36-11.33,103.12-9.66,154.59,2.48,60.87,14.35,114.55,42.56,162.88,81.67,10.91,8.83,20.78,18.72,29.69,29.59.62.76,2.5,1.06,3.54.74.96-.29,2.18-1.66,2.26-2.63,1.21-15.94,3.23-31.89,3.13-47.83-.16-25.46,25.85-36.81,45.31-30.46,12.83,4.19,20.2,12.14,20.71,25.96.68,18.64.44,37.32.58,55.98.04,5.33,0,10.66,0,16h-.52ZM764.9,210.93c0,1.35-.2,1.5-.58.44.4-.03.8-.06,1.2-.09.61,1.14-.09,1.72-.87.74-1.65-2.07-.4,1.44.25-1.1ZM880.09,183.66c1.65,1.66,3.3,3.33,4.96,4.99v155.03c1.33-1.81,1.92-3.67,1.93-5.54.13-43.16.23-86.32.27-129.48,0-6.64-.19-13.3-2.68-19.63-1.62-1.65-3.23-3.31-4.85-4.96-.38-.36-.71-.8-1.15-1.04-.28-.15-.72,0-1.09,0,.87.2,1.75.4,2.63.62ZM238.22,453.79c1.02-.53,2.09-.98,3.03-1.63.28-.19.21-.91.3-1.39-1.1,1.08-2.21,2.16-3.22,3.43-.04,1.29-.14,2.57-.11,3.85.03,1.01.22,2.01.34,3.01.21-1.16.63-2.34.56-3.48-.07-1.28-.58-2.53-.91-3.8ZM209.53,386.53c-.95.61-1.96,1.15-2.81,1.87-.37.31-.71,1.14-.54,1.49.64,1.33,1.37,1.08,1.96-.59.39-1.08.85-2.12,1.15-3.34,0-.94,0-1.88,0-2.82.08,1.13.16,2.26.24,3.38ZM721.69,355.22l-.97.89,1.44-.8c-.47,5.44,1.86,8.37,7.48,8.36,1.56,2.34,3.73,3.72,6.56,3.72,31.37.02,62.74.02,94.11.02-12.55-1.97-25.1-1.89-37.66-1.99-21.18-.17-42.39.98-63.58-1.34-2.42-2.97-4.85-5.94-7.38-8.85ZM202.19,415.27c-6.71,3.6-5.35,9.55-4.49,15.36-3.6,2.81-5,6.16-2.74,12.48,1.05-5.67,1.74-9.35,2.31-13.18,1.64-4.96,3.28-9.91,4.83-15.04,0-1.3.07-2.61,0-3.91-.05-1.02-.24-2.03-.36-3.05-.2,1.17-.63,2.36-.55,3.52.09,1.29.65,2.55,1,3.82ZM837.69,233.95c1.66-1.92,4.38-3.63,4.81-5.79,1.84-9.39,2.51-18.9.7-31.9-4.76,14.69-.45,26.92-5.11,38.12v14.96c3.27-8.22,1.93-11.85-.4-15.39ZM573.92,143.34c0-.33,0-.65,0-.98h-64.23c0,.33,0,.65,0,.98h64.23ZM744.65,318.35c.02.35.03.7.05,1.05h22.7c-.01-.35-.03-.7-.04-1.05h-22.71ZM541.13,189.72c3.53,1.94,7.17,1.32,10.87.61-3.56-1.85-7.21-1.04-10.87-.61ZM865.83,367.12c-.37-.87-.56-1.64-.72-1.63-1.78.07-3.55.26-5.33.41.17.41.33,1.15.53,1.16,1.77.09,3.55.05,5.52.05ZM213.75,486.3c-.49-.25-.96-.62-1.47-.71-.55-.09-1.45-.13-1.68.18-.74,1.04-.07,1.58,1.66,1.27.52-.1.99-.49,1.49-.74ZM606.13,146.28l-.65.73,1.29.03-.63-.76ZM466.79,150.21l-1.54.41,1.15.79.39-1.19ZM625.39,150.57l1.1.6.2-.83-1.3.23Z"/>
</svg>