<?xml version="1.0" encoding="UTF-8"?>
<svg id="Capa_1" data-name="Capa 1" xmlns="http://www.w3.org/2000/svg" viewBox="0 0 1032.7 967.2">
  <defs>
    <style>
      .cls-1 {
        fill: #000;
        stroke-width: 0px;
      }
    </style>
  </defs>
  <path class="cls-1" d="M498.78,829.21c-107.93,0-215.85.03-323.78-.06-7.29,0-14.87.27-21.8-1.55-19.67-5.17-32.21-21.66-32.74-42.45-.66-25.96-1.32-51.92,6.05-77.35,10.93-37.74,28.84-71.27,56.39-99.67,30.75-31.71,66.69-54.56,108.71-68.44,28.35-9.36,57.16-11.91,86.66-10.08,7.41.46,14.36,2.44,21.28,5.03,6.21,2.32,12.87,3.42,19.03,5.85,33.01,13.02,67.38,14.71,102.17,12.42,20.02-1.32,39.55-6.04,58.11-13.35,38.18-15.04,76.63-13.35,115.68-4.66,43.47,9.67,80.36,31.57,112.75,61.16,30.16,27.55,49.77,62.18,62.29,100.8,10,30.86,12.76,62.41,7.3,94.59-3.49,20.59-19.61,36.03-40.32,37.58-6.63.5-13.32.18-19.98.18-105.93,0-211.86,0-317.79,0v.02Z"/>
  <path class="cls-1" d="M275.92,268.36c-1.75-33.34,5.23-64.91,19.04-95.06,27.93-60.96,74.59-101.08,137.89-121.65,14.31-4.65,29.47-8.05,45.01-7.58,7.98.24,15.98-.4,23.97-.46,58.95-.44,108.57,21.84,151.2,61.66,34.78,32.48,55.93,72.56,65.49,118.61,3.35,16.13,3.72,33.09,3.67,49.67-.13,37.98-10.3,73.49-28.79,106.69-27.55,49.48-69.14,82.1-122.09,100.27-25.85,8.87-52.77,13.93-80.36,12.64-43.53-2.03-83.43-15.2-119.71-39.5-50.94-34.12-79.89-82.51-92.74-141.54-3.15-14.47-2.1-29.16-2.57-43.73Z"/>
</svg>