<?xml version="1.0" encoding="UTF-8"?>
<svg id="Capa_1" data-name="Capa 1" xmlns="http://www.w3.org/2000/svg" viewBox="0 0 1113.18 964.04">
  <defs>
    <style>
      .cls-1 {
        fill: #e30613;
        stroke-width: 0px;
      }
    </style>
  </defs>
  <path class="cls-1" d="M495.6,825.86c-113.33,0-226.66.01-339.99-.03-7.33,0-14.66-.44-21.98-.59-37.77-.81-63.04-34-67.08-67.66-1.53-12.74,2.99-25.02,7.43-36.94,5.14-13.81,12.62-26.46,20.02-39.1,67.68-115.55,135.46-231.03,203.29-346.49,42.86-72.95,85.83-145.84,128.84-218.71,7.1-12.02,13.89-24.26,24.64-33.72,9.71-8.55,20.44-15.06,33.23-17.26,29.82-5.15,52.19,7.56,68.25,31.4,13.38,19.86,24.96,40.95,37.15,61.6,65.33,110.75,130.57,221.56,195.9,332.31,37.91,64.27,76.03,128.4,113.8,192.75,8.41,14.32,16.35,28.88,22.89,44.31,13.93,32.86-6.22,82.59-48.58,96.08-8.37,2.67-17.17,1.98-25.81,1.98-68.66.02-137.33-.03-205.99-.04-48.67-.01-97.33,0-146,0v.11ZM532.57,437.22h.28c0-39.24.01-78.47-.02-117.71,0-5.32.48-10.77-.5-15.92-3.08-16.27-12.73-27.66-28.13-33.48-15.87-5.99-28.36.82-39.4,11.88-4.41,4.42-7.26,9.57-7.87,15.72-.59,5.94-.91,11.93-.94,17.89-.42,79.8-.73,159.6-1.17,239.4-.04,7.37.33,14.65,2.66,21.67,5.07,15.27,15.71,24.84,31.47,27.08,15.96,2.26,28.12-4.9,37.22-18.15,5.66-8.25,6.35-17.34,6.37-26.68.07-40.57.03-81.13.03-121.7ZM538.8,689.86c-.37-23.22-20.42-43.65-43.38-43.16-19.99.43-45.44,16.69-44.09,46.46,1.3,28.82,21.08,43.49,43.87,43.81,20.29.29,45.41-19.97,43.6-47.11Z"/>
</svg>